<svg width="20" height="20" viewBox="0 0 20 20" fill="none" xmlns="http://www.w3.org/2000/svg">
<path d="M3.33514 18.1818C3.83729 18.3339 4.51553 18.3339 5.66846 18.3339H14.3351C15.488 18.3339 16.1663 18.3339 16.6684 18.1818M3.33514 18.1818C3.22747 18.1491 3.1279 18.1095 3.03348 18.0614C2.56308 17.8217 2.18062 17.4393 1.94094 16.9689C1.66846 16.4341 1.66846 15.734 1.66846 14.3339V5.66724C1.66846 4.26711 1.66846 3.56704 1.94094 3.03226C2.18062 2.56185 2.56308 2.1794 3.03348 1.93972C3.56826 1.66724 4.26833 1.66724 5.66846 1.66724H14.3351C15.7353 1.66724 16.4353 1.66724 16.9701 1.93972C17.4405 2.1794 17.823 2.56185 18.0626 3.03226C18.3351 3.56704 18.3351 4.26711 18.3351 5.66724V14.3339C18.3351 15.734 18.3351 16.4341 18.0626 16.9689C17.823 17.4393 17.4405 17.8217 16.9701 18.0614C16.8757 18.1095 16.7761 18.1491 16.6684 18.1818M3.33514 18.1818C3.33542 17.5073 3.33946 17.1505 3.39917 16.8503C3.6622 15.528 4.69585 14.4943 6.01816 14.2313C6.34015 14.1672 6.72736 14.1672 7.50179 14.1672H12.5018C13.2762 14.1672 13.6634 14.1672 13.9854 14.2313C15.3077 14.4943 16.3414 15.528 16.6044 16.8503C16.6641 17.1505 16.6682 17.5073 16.6684 18.1818M13.3351 7.91724C13.3351 9.75819 11.8427 11.2506 10.0018 11.2506C8.16084 11.2506 6.66846 9.75819 6.66846 7.91724C6.66846 6.07629 8.16084 4.5839 10.0018 4.5839C11.8427 4.5839 13.3351 6.07629 13.3351 7.91724Z" stroke="#283030" stroke-width="1.2" stroke-linecap="round" stroke-linejoin="round"/>
</svg>
