<svg width="29" height="29" viewBox="0 0 29 29" fill="none" xmlns="http://www.w3.org/2000/svg">
<path d="M27.1069 6.99154C23.774 3.65947 17.0783 4.84797 11.6929 9.54124L12.4143 10.2626L13.2021 11.0498C17.053 7.80417 21.4878 6.94074 23.708 9.16537C26.1514 11.6034 24.8714 16.7132 20.7918 20.7919C18.1098 23.4737 14.9802 24.9467 12.4604 24.9467C11.1442 24.9467 9.9962 24.5455 9.16324 23.7074C6.93813 21.4877 7.80187 17.0535 11.048 13.2035L10.2607 12.4162L9.53933 11.6949C4.84505 17.079 3.65631 23.7734 6.98878 27.1055C8.26926 28.3855 10.0523 29.0001 12.0641 29.0001C15.6456 29.0001 19.9638 27.0597 23.5101 23.5093C29.0576 17.9678 30.668 10.5571 27.1069 6.99154Z" fill="#C1C1C1"/>
<path d="M13.2729 15.4283L12.1298 14.2854C10.9565 15.7026 10.1131 17.2366 9.70679 18.7044C9.23397 20.4213 9.42204 21.813 10.2401 22.6307C11.0528 23.4485 12.4498 23.6364 14.1669 23.164C16.0368 22.6459 18.0079 21.4219 19.7145 19.7152C21.4217 18.0086 22.6461 16.0378 23.1641 14.1687C23.6369 12.4519 23.4488 11.0551 22.6307 10.2424C22.1073 9.7192 21.3507 9.45508 20.426 9.45508C19.9026 9.45508 19.3236 9.5363 18.704 9.70904C17.2355 10.1154 15.7014 10.9585 14.284 12.1319L15.4271 13.2747C15.9148 12.9547 16.4124 12.7159 16.9001 12.5687C17.9111 12.269 18.7645 12.4061 19.3132 12.9497C19.8569 13.4931 19.9944 14.3515 19.6892 15.3571C19.4253 16.2614 18.8255 17.206 18.0129 18.0136C17.2052 18.8263 16.2601 19.4258 15.3556 19.6899C15.0053 19.7966 14.675 19.8473 14.3654 19.8473C13.7913 19.8473 13.3032 19.6695 12.948 19.3139C12.3992 18.7655 12.2673 17.9121 12.5669 16.9013C12.7143 16.4136 12.9529 15.9158 13.2729 15.4283Z" fill="#C1C1C1"/>
<path d="M15.5845 17.11C15.1781 17.11 14.7971 16.9527 14.5074 16.6631L14.0098 16.1652C13.8014 16.5106 13.6387 16.8561 13.5424 17.1912C13.3544 17.816 13.4 18.329 13.6645 18.5931C13.9334 18.8572 14.4414 18.9081 15.0665 18.7201C15.8083 18.4967 16.6005 17.9938 17.2966 17.2979C17.9926 16.6021 18.4957 15.8097 18.7189 15.0681C18.902 14.4434 18.8564 13.9355 18.5919 13.6663C18.4347 13.5088 18.1906 13.4326 17.886 13.4326C17.6776 13.4326 17.444 13.4682 17.1899 13.5444C16.8545 13.6408 16.5093 13.8034 16.164 14.0116L16.6616 14.5095C17.2559 15.1037 17.2559 16.0689 16.6616 16.6631C16.3723 16.9527 15.9913 17.11 15.5845 17.11Z" fill="#2CBFCA"/>
<path d="M10.2265 10.9459V10.951L10.9429 11.6621L11.7253 12.4443L12.8024 13.5262L13.8946 14.6131L14.6159 15.3345L15.2257 15.9491C15.3271 16.0455 15.4541 16.0964 15.5864 16.0964C15.7183 16.0964 15.8454 16.0455 15.9471 15.9491C16.1452 15.7509 16.1452 15.4259 15.9471 15.2277L15.3373 14.6131L14.616 13.897L13.5238 12.8049L12.4467 11.7281L11.6643 10.9408L10.9479 10.2297L7.50881 6.79111V3.91613L3.59191 0L3.29202 2.10278L3.14469 3.14916L2.09811 3.29138L0 3.59619L3.9169 7.50724H6.78721L10.2265 10.9459Z" fill="#2CBFCA"/>
</svg>
