<svg width="20" height="20" viewBox="0 0 20 20" fill="none" xmlns="http://www.w3.org/2000/svg">
<path d="M16.6649 6.87533V15.0003C16.6649 17.5003 15.1732 18.3337 13.3315 18.3337H6.66488C4.82321 18.3337 3.33154 17.5003 3.33154 15.0003V6.87533C3.33154 4.16699 4.82321 3.54199 6.66488 3.54199C6.66488 4.05866 6.87319 4.52532 7.21485 4.86699C7.55652 5.20866 8.02321 5.41699 8.53988 5.41699H11.4565C12.4899 5.41699 13.3315 4.57533 13.3315 3.54199C15.1732 3.54199 16.6649 4.16699 16.6649 6.87533Z" stroke="#283030" stroke-width="1.2" stroke-linecap="round" stroke-linejoin="round"/>
<path d="M13.3351 3.54199C13.3351 4.57533 12.4935 5.41699 11.4601 5.41699H8.54346C8.02679 5.41699 7.5601 5.20866 7.21843 4.86699C6.87677 4.52532 6.66846 4.05866 6.66846 3.54199C6.66846 2.50866 7.51012 1.66699 8.54346 1.66699H11.4601C11.9768 1.66699 12.4435 1.87533 12.7851 2.217C13.1268 2.55866 13.3351 3.02533 13.3351 3.54199Z" stroke="#283030" stroke-width="1.2" stroke-linecap="round" stroke-linejoin="round"/>
<path d="M6.66846 10.833H10.0018" stroke="#283030" stroke-width="1.2" stroke-linecap="round" stroke-linejoin="round"/>
<path d="M6.66846 14.167H13.3351" stroke="#283030" stroke-width="1.2" stroke-linecap="round" stroke-linejoin="round"/>
</svg>
