<svg width="22" height="21" viewBox="0 0 22 21" fill="none" xmlns="http://www.w3.org/2000/svg">
<path d="M3.03142 1C1.91187 1 1 1.91187 1 3.03142C1 4.03518 1.73369 4.8694 2.69219 5.03175V17.9278C2.69219 19.0474 3.60472 19.9599 4.72426 19.9599H17.5906H17.9278C19.0474 19.9599 19.9599 19.048 19.9599 17.9285V16.2356C19.9599 16.0486 19.8083 15.8971 19.6213 15.8971H16.5742V12.3189C16.6966 12.299 16.8187 12.2772 16.9405 12.2541C16.9437 12.2684 16.9447 12.283 16.9485 12.2971C17.0926 12.8351 17.6524 13.1587 18.1903 13.0146C18.7283 12.8704 19.0546 12.31 18.9105 11.7721C18.9067 11.7582 18.9002 11.7454 18.8959 11.7317C19.5476 11.5052 20.1899 11.2317 20.8195 10.8998C20.9801 10.815 21.0451 10.6187 20.967 10.4548C20.967 10.4548 20.7887 10.0739 20.5974 9.65005C20.406 9.22622 20.1922 8.71517 20.1695 8.63038L19.7324 6.99374C19.3189 5.45044 17.9938 4.39907 16.5742 4.42537V3.03142C16.5742 1.91187 15.6623 1 14.5428 1H3.03142ZM3.03142 1.67714H13.0523C12.7244 2.03807 12.5114 2.50688 12.5114 3.03142V4.38569H3.03142C2.27529 4.38569 1.67714 3.78754 1.67714 3.03142C1.67714 2.27529 2.27529 1.67714 3.03142 1.67714ZM14.5428 1.67714C15.2989 1.67714 15.8971 2.27529 15.8971 3.03142V4.51927C14.2633 4.97877 13.3708 6.7955 13.8465 8.57086L14.2842 10.2075C14.3069 10.2923 14.3802 10.8418 14.4264 11.3045C14.4726 11.7673 14.5064 12.1873 14.5064 12.1873C14.5219 12.3683 14.6774 12.5049 14.8589 12.4968C15.2074 12.4818 15.5529 12.4507 15.8971 12.4115V17.9285C15.8971 18.4927 16.0417 18.9498 16.2984 19.2828H4.72426C3.96814 19.2828 3.36932 18.6839 3.36932 17.9278V5.06283H12.8499C13.0369 5.06281 13.1885 4.91124 13.1885 4.72426V3.03142C13.1885 2.27529 13.7867 1.67714 14.5428 1.67714ZM16.5616 5.10119C17.6656 5.0674 18.7339 5.88499 19.0778 7.16831L19.5175 8.80561C19.5889 9.07202 19.7855 9.50015 19.9797 9.93043C20.0959 10.1876 20.1334 10.2654 20.2046 10.4178C18.59 11.2196 16.9047 11.6595 15.1492 11.7747C15.1346 11.6073 15.1297 11.5192 15.1015 11.2371C15.0547 10.7673 15.0103 10.2967 14.9389 10.0303L14.4991 8.39563C14.1065 6.93016 14.8363 5.5174 16.0862 5.1693H16.0888C16.246 5.12859 16.4039 5.10601 16.5616 5.10119ZM5.70625 11.8349C5.26533 11.8659 5.29679 12.5232 5.73865 12.512H12.8493C13.2908 12.5022 13.2908 11.8447 12.8493 11.8349H5.73865C5.72786 11.8344 5.71704 11.8344 5.70625 11.8349ZM18.2512 11.9374C18.2522 11.9408 18.2542 11.9438 18.2551 11.9473C18.3046 12.1318 18.2002 12.3125 18.0158 12.3619C17.8313 12.4113 17.6499 12.3064 17.6005 12.1219C17.5996 12.1186 17.5999 12.1152 17.5992 12.112C17.8176 12.0594 18.0348 12.0008 18.2512 11.9374ZM13.867 14.2042V14.5864C13.6504 14.6305 13.4508 14.7132 13.2844 14.8364C13.0344 15.0215 12.8493 15.3099 12.8493 15.6411C12.8493 15.9815 13.0767 16.2514 13.3194 16.4036C13.5622 16.5558 13.8398 16.6425 14.1143 16.7184C14.369 16.7888 14.603 16.8705 14.7365 16.9531C14.8701 17.0357 14.8834 17.0597 14.8813 17.1356C14.8789 17.2252 14.8334 17.3184 14.7167 17.4054C14.6 17.4925 14.4169 17.5582 14.2042 17.5582C13.9915 17.5582 13.804 17.4905 13.6864 17.4034C13.5689 17.3163 13.5264 17.2297 13.5264 17.1455H12.8493C12.8493 17.4767 13.0344 17.7625 13.2844 17.9476C13.4508 18.0709 13.6504 18.1542 13.867 18.1983V18.6049H14.5441V18.1969C14.759 18.1527 14.9571 18.0702 15.1214 17.9476C15.3695 17.7625 15.5499 17.4791 15.5585 17.1535C15.5677 16.8078 15.3361 16.5274 15.091 16.3758C14.8458 16.2242 14.5668 16.141 14.2941 16.0657C14.0412 15.9958 13.8123 15.9144 13.6792 15.8309C13.546 15.7474 13.5264 15.7162 13.5264 15.6411C13.5264 15.557 13.5689 15.4683 13.6864 15.3813C13.804 15.2942 13.9915 15.2265 14.2042 15.2265C14.4169 15.2265 14.6037 15.2942 14.7213 15.3813C14.8389 15.4683 14.8813 15.557 14.8813 15.6411H15.5585C15.5585 15.3099 15.374 15.0215 15.124 14.8364C14.9585 14.7138 14.7594 14.6314 14.5441 14.5871V14.2042H13.867ZM16.5742 16.5742H19.2828V17.9285C19.2828 18.6846 18.6846 19.2828 17.9285 19.2828C17.51 19.2826 17.1734 19.1886 16.9511 18.9971C16.7287 18.8054 16.5742 18.4999 16.5742 17.9285V16.5742Z" fill="#283030"/>
<path d="M5.73839 16C5.29684 15.9902 5.29684 15.3326 5.73839 15.3229H11.8346C12.2961 15.3127 12.2961 16.0102 11.8346 16H5.73839Z" fill="#283030"/>
<path d="M5.73874 9.5C5.27719 9.51024 5.27719 8.81262 5.73874 8.82286H12.8494C13.3109 8.81262 13.3109 9.51024 12.8494 9.5H5.73874Z" fill="#283030"/>
<path d="M3.03142 1C1.91187 1 1 1.91187 1 3.03142C1 4.03518 1.73369 4.8694 2.69219 5.03175V17.9278C2.69219 19.0474 3.60472 19.9599 4.72426 19.9599H17.5906H17.9278C19.0474 19.9599 19.9599 19.048 19.9599 17.9285V16.2356C19.9599 16.0486 19.8083 15.8971 19.6213 15.8971H16.5742V12.3189C16.6966 12.299 16.8187 12.2772 16.9405 12.2541C16.9437 12.2684 16.9447 12.283 16.9485 12.2971C17.0926 12.8351 17.6524 13.1587 18.1903 13.0146C18.7283 12.8704 19.0546 12.31 18.9105 11.7721C18.9067 11.7582 18.9002 11.7454 18.8959 11.7317C19.5476 11.5052 20.1899 11.2317 20.8195 10.8998C20.9801 10.815 21.0451 10.6187 20.967 10.4548C20.967 10.4548 20.7887 10.0739 20.5974 9.65005C20.406 9.22622 20.1922 8.71517 20.1695 8.63038L19.7324 6.99374C19.3189 5.45044 17.9938 4.39907 16.5742 4.42537V3.03142C16.5742 1.91187 15.6623 1 14.5428 1H3.03142ZM3.03142 1.67714H13.0523C12.7244 2.03807 12.5114 2.50688 12.5114 3.03142V4.38569H3.03142C2.27529 4.38569 1.67714 3.78754 1.67714 3.03142C1.67714 2.27529 2.27529 1.67714 3.03142 1.67714ZM14.5428 1.67714C15.2989 1.67714 15.8971 2.27529 15.8971 3.03142V4.51927C14.2633 4.97877 13.3708 6.7955 13.8465 8.57086L14.2842 10.2075C14.3069 10.2923 14.3802 10.8418 14.4264 11.3045C14.4726 11.7673 14.5064 12.1873 14.5064 12.1873C14.5219 12.3683 14.6774 12.5049 14.8589 12.4968C15.2074 12.4818 15.5529 12.4507 15.8971 12.4115V17.9285C15.8971 18.4927 16.0417 18.9498 16.2984 19.2828H4.72426C3.96814 19.2828 3.36932 18.6839 3.36932 17.9278V5.06283H12.8499C13.0369 5.06281 13.1885 4.91124 13.1885 4.72426V3.03142C13.1885 2.27529 13.7867 1.67714 14.5428 1.67714ZM16.5616 5.10119C17.6656 5.0674 18.7339 5.88499 19.0778 7.16831L19.5175 8.80561C19.5889 9.07202 19.7855 9.50015 19.9797 9.93043C20.0959 10.1876 20.1334 10.2654 20.2046 10.4178C18.59 11.2196 16.9047 11.6595 15.1492 11.7747C15.1346 11.6073 15.1297 11.5192 15.1015 11.2371C15.0547 10.7673 15.0103 10.2967 14.9389 10.0303L14.4991 8.39563C14.1065 6.93016 14.8363 5.5174 16.0862 5.1693H16.0888C16.246 5.12859 16.4039 5.10601 16.5616 5.10119ZM5.70625 11.8349C5.26533 11.8659 5.29679 12.5232 5.73865 12.512H12.8493C13.2908 12.5022 13.2908 11.8447 12.8493 11.8349H5.73865C5.72786 11.8344 5.71704 11.8344 5.70625 11.8349ZM18.2512 11.9374C18.2522 11.9408 18.2542 11.9438 18.2551 11.9473C18.3046 12.1318 18.2002 12.3125 18.0158 12.3619C17.8313 12.4113 17.6499 12.3064 17.6005 12.1219C17.5996 12.1186 17.5999 12.1152 17.5992 12.112C17.8176 12.0594 18.0348 12.0008 18.2512 11.9374ZM13.867 14.2042V14.5864C13.6504 14.6305 13.4508 14.7132 13.2844 14.8364C13.0344 15.0215 12.8493 15.3099 12.8493 15.6411C12.8493 15.9815 13.0767 16.2514 13.3194 16.4036C13.5622 16.5558 13.8398 16.6425 14.1143 16.7184C14.369 16.7888 14.603 16.8705 14.7365 16.9531C14.8701 17.0357 14.8834 17.0597 14.8813 17.1356C14.8789 17.2252 14.8334 17.3184 14.7167 17.4054C14.6 17.4925 14.4169 17.5582 14.2042 17.5582C13.9915 17.5582 13.804 17.4905 13.6864 17.4034C13.5689 17.3163 13.5264 17.2297 13.5264 17.1455H12.8493C12.8493 17.4767 13.0344 17.7625 13.2844 17.9476C13.4508 18.0709 13.6504 18.1542 13.867 18.1983V18.6049H14.5441V18.1969C14.759 18.1527 14.9571 18.0702 15.1214 17.9476C15.3695 17.7625 15.5499 17.4791 15.5585 17.1535C15.5677 16.8078 15.3361 16.5274 15.091 16.3758C14.8458 16.2242 14.5668 16.141 14.2941 16.0657C14.0412 15.9958 13.8123 15.9144 13.6792 15.8309C13.546 15.7474 13.5264 15.7162 13.5264 15.6411C13.5264 15.557 13.5689 15.4683 13.6864 15.3813C13.804 15.2942 13.9915 15.2265 14.2042 15.2265C14.4169 15.2265 14.6037 15.2942 14.7213 15.3813C14.8389 15.4683 14.8813 15.557 14.8813 15.6411H15.5585C15.5585 15.3099 15.374 15.0215 15.124 14.8364C14.9585 14.7138 14.7594 14.6314 14.5441 14.5871V14.2042H13.867ZM16.5742 16.5742H19.2828V17.9285C19.2828 18.6846 18.6846 19.2828 17.9285 19.2828C17.51 19.2826 17.1734 19.1886 16.9511 18.9971C16.7287 18.8054 16.5742 18.4999 16.5742 17.9285V16.5742Z" stroke="#283030" stroke-width="0.125"/>
<path d="M5.73839 16C5.29684 15.9902 5.29684 15.3326 5.73839 15.3229H11.8346C12.2961 15.3127 12.2961 16.0102 11.8346 16H5.73839Z" stroke="#283030" stroke-width="0.125"/>
<path d="M5.73874 9.5C5.27719 9.51024 5.27719 8.81262 5.73874 8.82286H12.8494C13.3109 8.81262 13.3109 9.51024 12.8494 9.5H5.73874Z" stroke="#283030" stroke-width="0.125"/>
</svg>
