<svg width="46" height="46" viewBox="0 0 46 46" fill="none" xmlns="http://www.w3.org/2000/svg">
<circle cx="22.7943" cy="22.7943" r="22.7943" fill="white"/>
<circle cx="22.7943" cy="22.7943" r="22.2943" stroke="#283030" stroke-opacity="0.2"/>
<path fill-rule="evenodd" clip-rule="evenodd" d="M26.7148 13.3533C27.8419 13.8243 28.1867 15.4647 28.6476 15.992C29.1085 16.5193 29.768 16.6986 30.1329 16.6986C32.0724 16.6986 33.6447 18.3495 33.6447 20.3848V27.175C33.6447 29.9051 31.5356 32.1196 28.9355 32.1196H17.7092C15.108 32.1196 13 29.9051 13 27.175V20.3848C13 18.3495 14.5723 16.6986 16.5118 16.6986C16.8756 16.6986 17.5351 16.5193 17.9971 15.992C18.458 15.4647 18.8017 13.8243 19.9288 13.3533C21.057 12.8822 25.5877 12.8822 26.7148 13.3533Z" stroke="#283030" stroke-width="1.5" stroke-linecap="round" stroke-linejoin="round"/>
<path d="M29.4568 19.7363H29.4668" stroke="#283030" stroke-width="1.5" stroke-linecap="round" stroke-linejoin="round"/>
<path fill-rule="evenodd" clip-rule="evenodd" d="M26.869 23.9925C26.869 21.9349 25.281 20.2676 23.3215 20.2676C21.3619 20.2676 19.7739 21.9349 19.7739 23.9925C19.7739 26.05 21.3619 27.7174 23.3215 27.7174C25.281 27.7174 26.869 26.05 26.869 23.9925Z" stroke="#283030" stroke-width="1.5" stroke-linecap="round" stroke-linejoin="round"/>
</svg>
