<svg width="40" height="40" viewBox="0 0 40 40" fill="none" xmlns="http://www.w3.org/2000/svg">
<rect x="0.5" y="0.5" width="39" height="39" rx="7.5" stroke="#E1E1E1"/>
<path d="M27.5 20.375V22.7C27.5 24.3802 27.5 25.2202 27.173 25.862C26.8854 26.4265 26.4265 26.8854 25.862 27.173C25.2202 27.5 24.3802 27.5 22.7 27.5H17.3C15.6198 27.5 14.7798 27.5 14.138 27.173C13.5735 26.8854 13.1146 26.4265 12.827 25.862C12.5 25.2202 12.5 24.3802 12.5 22.7V18.8C12.5 17.1198 12.5 16.2798 12.827 15.638C13.1146 15.0735 13.5735 14.6146 14.138 14.327C14.7798 14 15.6198 14 17.3 14H20.375M25.25 17.75V13.25M23 15.5H27.5M23 20.75C23 22.4069 21.6569 23.75 20 23.75C18.3431 23.75 17 22.4069 17 20.75C17 19.0931 18.3431 17.75 20 17.75C21.6569 17.75 23 19.0931 23 20.75Z" stroke="#283030" stroke-opacity="0.8" stroke-width="1.5" stroke-linecap="round" stroke-linejoin="round"/>
</svg>
