<svg width="109" height="109" viewBox="0 0 109 109" fill="none" xmlns="http://www.w3.org/2000/svg">
<circle cx="54.5" cy="54.5" r="54.5" fill="#2CBFCA"/>
<path d="M47.6905 60.8235C47.6905 60.8235 51.0056 64.6176 56.5308 64.6176C62.0559 64.6176 65.371 60.8235 65.371 60.8235M63.4767 48.1765H63.502M49.5848 48.1765H49.6101M56.5308 76C68.3879 76 78 66.3741 78 54.5C78 42.6259 68.3879 33 56.5308 33C44.6736 33 35.0615 42.6259 35.0615 54.5C35.0615 56.9029 35.4552 59.2138 36.1814 61.3714C36.4547 62.1834 36.5913 62.5894 36.616 62.9013C36.6403 63.2093 36.6219 63.4252 36.5458 63.7246C36.4688 64.0278 36.2987 64.3432 35.9584 64.9738L31.8271 72.6317C31.2378 73.724 30.9432 74.2702 31.0091 74.6917C31.0665 75.0589 31.2823 75.3821 31.5991 75.5757C31.9628 75.7978 32.5794 75.734 33.8126 75.6064L46.7473 74.2674C47.139 74.2268 47.3348 74.2066 47.5133 74.2134C47.6889 74.2201 47.8129 74.2367 47.9841 74.2762C48.1582 74.3163 48.3771 74.4008 48.8149 74.5697C51.2094 75.4936 53.811 76 56.5308 76ZM64.7396 48.1765C64.7396 48.8749 64.1742 49.4412 63.4767 49.4412C62.7792 49.4412 62.2138 48.8749 62.2138 48.1765C62.2138 47.478 62.7792 46.9118 63.4767 46.9118C64.1742 46.9118 64.7396 47.478 64.7396 48.1765ZM50.8477 48.1765C50.8477 48.8749 50.2823 49.4412 49.5848 49.4412C48.8874 49.4412 48.3219 48.8749 48.3219 48.1765C48.3219 47.478 48.8874 46.9118 49.5848 46.9118C50.2823 46.9118 50.8477 47.478 50.8477 48.1765Z" stroke="white" stroke-width="5" stroke-linecap="round" stroke-linejoin="round"/>
</svg>
