<svg width="93" height="92" viewBox="0 0 93 92" fill="none" xmlns="http://www.w3.org/2000/svg">
<circle cx="46.3965" cy="45.9624" r="45.6733" fill="#363F3F"/>
<path d="M37.4226 49.2168C36.3224 49.2098 35.2605 49.0253 34.237 48.6632C33.2204 48.3011 32.3082 47.7127 31.5005 46.8981C30.6928 46.0834 30.0522 45.0041 29.5787 43.6603C29.1122 42.3164 28.8789 40.6661 28.8789 38.7095C28.8859 36.9131 29.0913 35.3081 29.4951 33.8946C29.906 32.4741 30.4909 31.2695 31.2498 30.2808C32.0158 29.292 32.9314 28.54 33.9968 28.0247C35.0621 27.5025 36.2563 27.2414 37.5792 27.2414C39.0067 27.2414 40.267 27.5199 41.3602 28.077C42.4534 28.627 43.3307 29.3756 43.9922 30.3225C44.6607 31.2695 45.0645 32.3314 45.2038 33.5081H40.7439C40.5699 32.7631 40.2043 32.1782 39.6473 31.7534C39.0902 31.3287 38.4009 31.1163 37.5792 31.1163C36.1866 31.1163 35.1282 31.7221 34.4041 32.9337C33.6869 34.1452 33.3213 35.792 33.3074 37.874H33.4536C33.7739 37.2403 34.2056 36.7007 34.7488 36.2551C35.2988 35.8025 35.922 35.4578 36.6183 35.221C37.3216 34.9773 38.0632 34.8555 38.843 34.8555C40.1103 34.8555 41.2383 35.1549 42.2271 35.7537C43.2158 36.3456 43.9957 37.1602 44.5667 38.1977C45.1376 39.2352 45.4231 40.4224 45.4231 41.7593C45.4231 43.2077 45.0854 44.4958 44.41 45.6238C43.7415 46.7518 42.805 47.6362 41.6004 48.2768C40.4028 48.9104 39.0101 49.2237 37.4226 49.2168ZM37.4017 45.6656C38.098 45.6656 38.7212 45.4985 39.2713 45.1643C39.8213 44.83 40.253 44.3774 40.5664 43.8065C40.8797 43.2355 41.0364 42.5949 41.0364 41.8847C41.0364 41.1744 40.8797 40.5373 40.5664 39.9733C40.26 39.4093 39.8353 38.9602 39.2921 38.626C38.749 38.2917 38.1293 38.1246 37.433 38.1246C36.9108 38.1246 36.4269 38.2221 35.9812 38.4171C35.5425 38.612 35.1561 38.8836 34.8219 39.2318C34.4946 39.5799 34.237 39.9838 34.049 40.4433C33.861 40.8959 33.767 41.3799 33.767 41.8951C33.767 42.5845 33.9236 43.2146 34.237 43.7856C34.5573 44.3566 34.989 44.8126 35.5321 45.1538C36.0822 45.495 36.7054 45.6656 37.4017 45.6656ZM56.4421 49.2168C54.966 49.2168 53.65 48.9452 52.4941 48.4021C51.3452 47.859 50.433 47.1104 49.7576 46.1565C49.0822 45.2026 48.7306 44.1094 48.7027 42.8769H53.0894C53.1382 43.7055 53.4863 44.3774 54.1339 44.8927C54.7814 45.408 55.5509 45.6656 56.4421 45.6656C57.1524 45.6656 57.779 45.5089 58.3222 45.1956C58.8722 44.8753 59.3005 44.4332 59.6068 43.8691C59.9202 43.2982 60.0768 42.6436 60.0768 41.9056C60.0768 41.1536 59.9167 40.4921 59.5964 39.9211C59.2831 39.3501 58.8479 38.9045 58.2908 38.5842C57.7338 38.2639 57.0967 38.1003 56.3795 38.0933C55.7528 38.0933 55.1435 38.2221 54.5517 38.4797C53.9668 38.7374 53.5107 39.089 53.1834 39.5346L49.1623 38.814L50.1754 27.5338H63.252V31.2312H53.9041L53.3505 36.5893H53.4759C53.8519 36.0601 54.4194 35.6214 55.1783 35.2733C55.9373 34.9251 56.7868 34.751 57.7268 34.751C59.015 34.751 60.1639 35.0539 61.1735 35.6597C62.1832 36.2655 62.9804 37.0976 63.5653 38.156C64.1502 39.2074 64.4392 40.419 64.4322 41.7907C64.4392 43.232 64.105 44.5132 63.4296 45.6343C62.7611 46.7484 61.8246 47.6257 60.62 48.2663C59.4223 48.8999 58.0297 49.2168 56.4421 49.2168ZM33.6384 67.9243V54.7609H36.023V60.8092H36.1837L41.3192 54.7609H44.2308L39.1403 60.6677L44.2758 67.9243H41.4092L37.482 62.281L36.023 64.0036V67.9243H33.6384ZM45.8875 54.7609H48.8055L52.7134 64.2992H52.8677L56.7756 54.7609H59.6936V67.9243H57.4054V58.8809H57.2833L53.6454 67.8858H51.9357L48.2978 58.8616H48.1757V67.9243H45.8875V54.7609Z" fill="white"/>
</svg>
