<svg width="40" height="40" viewBox="0 0 40 40" fill="none" xmlns="http://www.w3.org/2000/svg">
<circle cx="20" cy="20" r="19.5" fill="white" stroke="#E1E1E1"/>
<path d="M26.75 15.4844C24.2525 15.2369 21.74 15.1094 19.235 15.1094C17.75 15.1094 16.265 15.1844 14.78 15.3344L13.25 15.4844" stroke="#CCCFCF" stroke-width="1.5" stroke-linecap="round" stroke-linejoin="round"/>
<path d="M17.375 14.7275L17.54 13.745C17.66 13.0325 17.75 12.5 19.0175 12.5H20.9825C22.25 12.5 22.3475 13.0625 22.46 13.7525L22.625 14.7275" stroke="#CCCFCF" stroke-width="1.5" stroke-linecap="round" stroke-linejoin="round"/>
<path d="M25.1373 17.8555L24.6498 25.408C24.5673 26.5855 24.4998 27.5005 22.4073 27.5005H17.5923C15.4998 27.5005 15.4323 26.5855 15.3498 25.408L14.8623 17.8555" stroke="#CCCFCF" stroke-width="1.5" stroke-linecap="round" stroke-linejoin="round"/>
<path d="M18.7476 23.375H21.2451" stroke="#CCCFCF" stroke-width="1.5" stroke-linecap="round" stroke-linejoin="round"/>
<path d="M18.125 20.375H21.875" stroke="#CCCFCF" stroke-width="1.5" stroke-linecap="round" stroke-linejoin="round"/>
</svg>
