<svg width="20" height="20" viewBox="0 0 20 20" fill="none" xmlns="http://www.w3.org/2000/svg">
<path d="M9.99935 18.3332C14.6017 18.3332 18.3327 14.6022 18.3327 9.99984C18.3327 5.39746 14.6017 1.6665 9.99935 1.6665C5.39698 1.6665 1.66602 5.39746 1.66602 9.99984C1.66602 14.6022 5.39698 18.3332 9.99935 18.3332Z" stroke="#283030" stroke-width="1.2" stroke-linecap="round" stroke-linejoin="round"/>
<path d="M12.2678 6.88814C12.6749 6.75243 12.8785 6.68458 13.0138 6.73285C13.1316 6.77486 13.2243 6.86756 13.2663 6.98536C13.3146 7.12073 13.2468 7.32429 13.111 7.73142L11.8714 11.4503C11.8328 11.5662 11.8135 11.6242 11.7805 11.6723C11.7513 11.715 11.7145 11.7518 11.6719 11.781C11.6237 11.8139 11.5657 11.8333 11.4498 11.8719L7.73093 13.1115C7.3238 13.2472 7.12024 13.3151 6.98487 13.2668C6.86707 13.2248 6.77437 13.1321 6.73236 13.0143C6.68409 12.8789 6.75194 12.6754 6.88765 12.2683L8.12727 8.5494C8.16592 8.43345 8.18525 8.37547 8.21818 8.32733C8.24735 8.28469 8.2842 8.24784 8.32684 8.21867C8.37499 8.18574 8.43296 8.16641 8.54891 8.12776L12.2678 6.88814Z" stroke="#283030" stroke-width="1.2" stroke-linecap="round" stroke-linejoin="round"/>
</svg>
