<svg width="18" height="18" viewBox="0 0 18 18" fill="none" xmlns="http://www.w3.org/2000/svg">
<path d="M15.75 13.591L14.9999 14.4115C14.6021 14.8466 14.0626 15.091 13.5001 15.091C12.9376 15.091 12.3981 14.8466 12.0003 14.4115C11.6019 13.9773 11.0625 13.7335 10.5001 13.7335C9.93778 13.7335 9.39835 13.9773 8.99998 14.4115M2.25 15.091H3.50591C3.87279 15.091 4.05624 15.091 4.22887 15.0495C4.38192 15.0128 4.52824 14.9522 4.66245 14.87C4.81382 14.7772 4.94354 14.6475 5.20296 14.388L14.625 4.96599C15.2463 4.34467 15.2463 3.33731 14.625 2.71599C14.0037 2.09467 12.9963 2.09467 12.375 2.71599L2.95295 12.138C2.69352 12.3975 2.5638 12.5272 2.47104 12.6786C2.3888 12.8128 2.32819 12.9591 2.29145 13.1121C2.25 13.2848 2.25 13.4682 2.25 13.8351V15.091Z" stroke="#283030" stroke-width="1.5" stroke-linecap="round" stroke-linejoin="round"/>
</svg>
