<svg width="342" height="267" viewBox="0 0 342 267" fill="none" xmlns="http://www.w3.org/2000/svg">
<g filter="url(#filter0_d_1062_414)">
<rect x="60" y="77" width="202" height="120" rx="17" fill="white"/>
</g>
<path d="M81.6898 122V107.455H83.8844V113.776H91.1358V107.455H93.3375V122H91.1358V115.658H83.8844V122H81.6898ZM100.958 122.22C99.9355 122.22 99.043 121.986 98.2807 121.517C97.5184 121.048 96.9266 120.393 96.5051 119.55C96.0837 118.707 95.873 117.722 95.873 116.595C95.873 115.464 96.0837 114.474 96.5051 113.626C96.9266 112.779 97.5184 112.121 98.2807 111.652C99.043 111.183 99.9355 110.949 100.958 110.949C101.981 110.949 102.874 111.183 103.636 111.652C104.398 112.121 104.99 112.779 105.411 113.626C105.833 114.474 106.044 115.464 106.044 116.595C106.044 117.722 105.833 118.707 105.411 119.55C104.99 120.393 104.398 121.048 103.636 121.517C102.874 121.986 101.981 122.22 100.958 122.22ZM100.965 120.438C101.628 120.438 102.177 120.262 102.613 119.912C103.049 119.562 103.371 119.095 103.579 118.513C103.792 117.93 103.899 117.289 103.899 116.588C103.899 115.892 103.792 115.253 103.579 114.67C103.371 114.083 103.049 113.612 102.613 113.257C102.177 112.902 101.628 112.724 100.965 112.724C100.298 112.724 99.7438 112.902 99.3034 113.257C98.8678 113.612 98.5435 114.083 98.3304 114.67C98.1221 115.253 98.0179 115.892 98.0179 116.588C98.0179 117.289 98.1221 117.93 98.3304 118.513C98.5435 119.095 98.8678 119.562 99.3034 119.912C99.7438 120.262 100.298 120.438 100.965 120.438ZM115.324 117.476V111.091H117.455V122H115.367V120.111H115.253C115.002 120.693 114.6 121.179 114.046 121.567C113.497 121.95 112.813 122.142 111.993 122.142C111.293 122.142 110.672 121.988 110.133 121.68C109.598 121.368 109.176 120.906 108.868 120.295C108.565 119.685 108.414 118.929 108.414 118.03V111.091H110.537V117.774C110.537 118.518 110.743 119.109 111.155 119.55C111.567 119.99 112.102 120.21 112.76 120.21C113.158 120.21 113.554 120.111 113.947 119.912C114.344 119.713 114.673 119.412 114.934 119.01C115.199 118.607 115.329 118.096 115.324 117.476ZM120.308 122V111.091H122.361V112.824H122.475C122.673 112.237 123.024 111.775 123.526 111.439C124.032 111.098 124.605 110.928 125.244 110.928C125.377 110.928 125.533 110.932 125.713 110.942C125.898 110.951 126.042 110.963 126.146 110.977V113.009C126.061 112.985 125.91 112.959 125.692 112.93C125.474 112.897 125.256 112.881 125.039 112.881C124.537 112.881 124.089 112.987 123.696 113.2C123.308 113.409 123 113.7 122.773 114.074C122.546 114.443 122.432 114.865 122.432 115.338V122H120.308ZM130.108 107.455V122H127.984V107.455H130.108ZM134.307 126.091C133.99 126.091 133.701 126.065 133.441 126.013C133.18 125.965 132.986 125.913 132.858 125.857L133.369 124.116C133.758 124.221 134.103 124.266 134.406 124.251C134.709 124.237 134.977 124.124 135.209 123.911C135.446 123.697 135.654 123.349 135.834 122.866L136.097 122.142L132.105 111.091H134.378L137.141 119.557H137.254L140.017 111.091H142.297L137.801 123.456C137.593 124.024 137.328 124.505 137.006 124.898C136.684 125.295 136.3 125.594 135.855 125.793C135.41 125.991 134.894 126.091 134.307 126.091ZM149.586 122V111.091H151.638V112.824H151.752C151.951 112.237 152.301 111.775 152.803 111.439C153.31 111.098 153.883 110.928 154.522 110.928C154.654 110.928 154.811 110.932 154.991 110.942C155.175 110.951 155.32 110.963 155.424 110.977V113.009C155.339 112.985 155.187 112.959 154.969 112.93C154.751 112.897 154.534 112.881 154.316 112.881C153.814 112.881 153.367 112.987 152.974 113.2C152.585 113.409 152.278 113.7 152.05 114.074C151.823 114.443 151.709 114.865 151.709 115.338V122H149.586ZM160.339 122.241C159.647 122.241 159.022 122.114 158.464 121.858C157.905 121.598 157.462 121.221 157.135 120.729C156.814 120.236 156.653 119.633 156.653 118.918C156.653 118.302 156.771 117.795 157.008 117.398C157.244 117 157.564 116.685 157.966 116.453C158.369 116.221 158.819 116.046 159.316 115.928C159.813 115.809 160.32 115.719 160.836 115.658C161.489 115.582 162.019 115.52 162.427 115.473C162.834 115.421 163.13 115.338 163.314 115.224C163.499 115.111 163.591 114.926 163.591 114.67V114.621C163.591 114 163.416 113.52 163.066 113.179C162.72 112.838 162.204 112.668 161.518 112.668C160.803 112.668 160.239 112.826 159.827 113.143C159.42 113.456 159.138 113.804 158.982 114.188L156.986 113.733C157.223 113.07 157.569 112.535 158.023 112.128C158.483 111.716 159.01 111.418 159.607 111.233C160.204 111.044 160.831 110.949 161.489 110.949C161.925 110.949 162.386 111.001 162.874 111.105C163.367 111.205 163.826 111.389 164.252 111.659C164.683 111.929 165.036 112.315 165.31 112.817C165.585 113.314 165.722 113.96 165.722 114.756V122H163.648V120.509H163.563C163.426 120.783 163.22 121.053 162.945 121.318C162.671 121.583 162.318 121.804 161.887 121.979C161.456 122.154 160.94 122.241 160.339 122.241ZM160.8 120.537C161.387 120.537 161.889 120.421 162.306 120.189C162.727 119.957 163.047 119.654 163.265 119.28C163.487 118.901 163.599 118.496 163.599 118.065V116.659C163.523 116.735 163.376 116.806 163.158 116.872C162.945 116.934 162.701 116.988 162.427 117.036C162.152 117.078 161.885 117.118 161.624 117.156C161.364 117.189 161.146 117.218 160.971 117.241C160.559 117.294 160.182 117.381 159.841 117.504C159.505 117.627 159.235 117.805 159.032 118.037C158.833 118.264 158.733 118.567 158.733 118.946C158.733 119.472 158.928 119.869 159.316 120.139C159.704 120.404 160.199 120.537 160.8 120.537ZM173.643 111.091V112.795H167.684V111.091H173.643ZM169.282 108.477H171.406V118.797C171.406 119.209 171.467 119.519 171.59 119.727C171.713 119.931 171.872 120.071 172.066 120.146C172.265 120.217 172.481 120.253 172.713 120.253C172.883 120.253 173.032 120.241 173.16 120.217C173.288 120.194 173.387 120.175 173.458 120.161L173.842 121.915C173.719 121.962 173.544 122.009 173.316 122.057C173.089 122.109 172.805 122.137 172.464 122.142C171.905 122.152 171.384 122.052 170.901 121.844C170.419 121.635 170.028 121.313 169.73 120.878C169.431 120.442 169.282 119.895 169.282 119.237V108.477ZM180.577 122.22C179.502 122.22 178.576 121.991 177.8 121.531C177.028 121.067 176.431 120.416 176.01 119.578C175.593 118.735 175.385 117.748 175.385 116.616C175.385 115.499 175.593 114.514 176.01 113.662C176.431 112.81 177.018 112.144 177.771 111.666C178.529 111.188 179.414 110.949 180.427 110.949C181.043 110.949 181.64 111.051 182.217 111.254C182.795 111.458 183.313 111.777 183.773 112.213C184.232 112.649 184.594 113.214 184.859 113.911C185.124 114.602 185.257 115.442 185.257 116.432V117.185H176.585V115.594H183.176C183.176 115.035 183.062 114.54 182.835 114.109C182.608 113.674 182.288 113.33 181.876 113.08C181.469 112.829 180.991 112.703 180.442 112.703C179.845 112.703 179.324 112.85 178.879 113.143C178.439 113.432 178.098 113.811 177.856 114.28C177.62 114.744 177.501 115.248 177.501 115.793V117.036C177.501 117.765 177.629 118.385 177.885 118.896C178.145 119.408 178.507 119.798 178.971 120.068C179.435 120.333 179.978 120.466 180.598 120.466C181 120.466 181.367 120.409 181.699 120.295C182.03 120.177 182.317 120.002 182.558 119.77C182.8 119.538 182.984 119.251 183.112 118.911L185.122 119.273C184.961 119.865 184.672 120.383 184.256 120.828C183.844 121.268 183.325 121.612 182.7 121.858C182.08 122.099 181.372 122.22 180.577 122.22ZM195.788 113.754L193.863 114.095C193.783 113.849 193.655 113.615 193.48 113.392C193.309 113.17 193.077 112.987 192.784 112.845C192.49 112.703 192.123 112.632 191.683 112.632C191.081 112.632 190.579 112.767 190.177 113.037C189.775 113.302 189.573 113.645 189.573 114.067C189.573 114.431 189.708 114.725 189.978 114.947C190.248 115.17 190.684 115.352 191.285 115.494L193.018 115.892C194.022 116.124 194.77 116.482 195.262 116.964C195.755 117.447 196.001 118.075 196.001 118.847C196.001 119.5 195.811 120.082 195.433 120.594C195.059 121.1 194.535 121.498 193.863 121.787C193.195 122.076 192.421 122.22 191.541 122.22C190.319 122.22 189.322 121.96 188.551 121.439C187.779 120.913 187.305 120.168 187.13 119.202L189.183 118.889C189.311 119.424 189.573 119.829 189.971 120.104C190.369 120.374 190.887 120.509 191.526 120.509C192.222 120.509 192.779 120.364 193.195 120.075C193.612 119.782 193.82 119.424 193.82 119.003C193.82 118.662 193.693 118.375 193.437 118.143C193.186 117.911 192.8 117.736 192.279 117.618L190.433 117.213C189.415 116.981 188.662 116.612 188.174 116.105C187.691 115.598 187.45 114.957 187.45 114.18C187.45 113.536 187.63 112.973 187.99 112.49C188.349 112.007 188.847 111.631 189.481 111.361C190.115 111.086 190.842 110.949 191.661 110.949C192.84 110.949 193.768 111.205 194.445 111.716C195.123 112.223 195.57 112.902 195.788 113.754Z" fill="#283030" fill-opacity="0.8"/>
<g filter="url(#filter1_f_1062_414)">
<path d="M92.055 140.011C93.3763 140.02 94.6616 140.253 95.911 140.712C97.1693 141.161 98.3018 141.898 99.3085 142.923C100.315 143.939 101.115 145.3 101.708 147.008C102.302 148.716 102.598 150.828 102.598 153.345C102.607 155.718 102.355 157.839 101.843 159.708C101.34 161.569 100.616 163.142 99.6725 164.427C98.7288 165.713 97.5918 166.692 96.2615 167.366C94.9313 168.04 93.4347 168.378 91.7719 168.378C90.0282 168.378 88.4822 168.036 87.134 167.353C85.7948 166.67 84.7117 165.735 83.8848 164.549C83.0579 163.362 82.55 162.005 82.3613 160.477H87.2823C87.534 161.573 88.0463 162.445 88.8193 163.092C89.6013 163.731 90.5855 164.05 91.7719 164.05C93.6864 164.05 95.1605 163.218 96.1941 161.555C97.2277 159.893 97.7446 157.583 97.7446 154.626H97.5558C97.1154 155.417 96.5446 156.1 95.8436 156.675C95.1425 157.241 94.347 157.677 93.4572 157.983C92.5763 158.288 91.6416 158.441 90.6529 158.441C89.035 158.441 87.5789 158.055 86.2846 157.282C84.9993 156.509 83.9791 155.448 83.2241 154.1C82.4781 152.752 82.1006 151.21 82.0916 149.475C82.0916 147.678 82.5051 146.064 83.332 144.635C84.1679 143.197 85.3319 142.065 86.8239 141.238C88.3159 140.402 90.0597 139.993 92.055 140.011ZM92.0685 144.055C91.0978 144.055 90.2214 144.294 89.4395 144.77C88.6665 145.237 88.0553 145.876 87.6059 146.685C87.1655 147.484 86.9453 148.379 86.9453 149.367C86.9542 150.347 87.1744 151.237 87.6059 152.037C88.0463 152.837 88.644 153.471 89.399 153.938C90.163 154.405 91.0349 154.639 92.0146 154.639C92.7426 154.639 93.4212 154.5 94.0504 154.221C94.6796 153.942 95.2279 153.556 95.6953 153.062C96.1716 152.558 96.5401 151.988 96.8008 151.349C97.0704 150.711 97.2008 150.037 97.1918 149.327C97.1918 148.383 96.9671 147.511 96.5177 146.711C96.0772 145.912 95.4705 145.269 94.6976 144.784C93.9336 144.298 93.0572 144.055 92.0685 144.055ZM116.687 168.378C114.89 168.378 113.281 168.04 111.861 167.366C110.44 166.683 109.312 165.748 108.476 164.562C107.65 163.376 107.209 162.018 107.155 160.49H112.009C112.099 161.623 112.589 162.549 113.478 163.268C114.368 163.978 115.438 164.333 116.687 164.333C117.667 164.333 118.539 164.108 119.303 163.659C120.067 163.209 120.669 162.585 121.109 161.785C121.55 160.985 121.765 160.072 121.757 159.048C121.765 158.005 121.545 157.079 121.096 156.27C120.646 155.461 120.031 154.828 119.249 154.369C118.467 153.902 117.568 153.668 116.552 153.668C115.725 153.659 114.912 153.812 114.112 154.127C113.312 154.441 112.678 154.855 112.211 155.367L107.694 154.626L109.137 140.388H125.154V144.568H113.276L112.481 151.889H112.642C113.155 151.286 113.878 150.788 114.813 150.392C115.748 149.988 116.773 149.785 117.887 149.785C119.559 149.785 121.051 150.181 122.363 150.972C123.675 151.754 124.709 152.832 125.464 154.208C126.219 155.583 126.597 157.156 126.597 158.926C126.597 160.751 126.174 162.378 125.329 163.807C124.493 165.227 123.329 166.346 121.837 167.164C120.354 167.973 118.638 168.378 116.687 168.378ZM140.012 171.451V136.937H142.223V171.451H140.012ZM146.389 147.979C146.263 146.801 145.732 145.885 144.798 145.228C143.872 144.572 142.668 144.244 141.184 144.244C140.142 144.244 139.248 144.402 138.501 144.716C137.755 145.031 137.185 145.458 136.789 145.997C136.394 146.536 136.192 147.152 136.183 147.844C136.183 148.419 136.313 148.918 136.574 149.341C136.843 149.763 137.207 150.122 137.666 150.419C138.124 150.707 138.632 150.949 139.189 151.147C139.746 151.345 140.308 151.511 140.874 151.646L143.463 152.293C144.506 152.536 145.508 152.864 146.47 153.277C147.44 153.691 148.308 154.212 149.072 154.841C149.845 155.47 150.456 156.23 150.905 157.12C151.355 158.01 151.579 159.052 151.579 160.248C151.579 161.866 151.166 163.29 150.339 164.522C149.512 165.744 148.317 166.701 146.753 167.393C145.198 168.076 143.315 168.418 141.104 168.418C138.955 168.418 137.09 168.085 135.508 167.42C133.935 166.755 132.704 165.784 131.814 164.508C130.933 163.232 130.457 161.677 130.385 159.843H135.306C135.378 160.805 135.675 161.605 136.196 162.243C136.717 162.881 137.396 163.358 138.232 163.672C139.077 163.987 140.02 164.144 141.063 164.144C142.151 164.144 143.103 163.982 143.921 163.659C144.748 163.326 145.395 162.868 145.863 162.284C146.33 161.69 146.568 160.998 146.577 160.207C146.568 159.488 146.357 158.895 145.944 158.428C145.53 157.951 144.951 157.556 144.204 157.241C143.467 156.918 142.605 156.63 141.616 156.378L138.475 155.569C136.201 154.985 134.403 154.1 133.082 152.913C131.769 151.718 131.113 150.131 131.113 148.154C131.113 146.527 131.554 145.103 132.434 143.88C133.324 142.658 134.533 141.71 136.061 141.035C137.589 140.352 139.319 140.011 141.252 140.011C143.211 140.011 144.928 140.352 146.402 141.035C147.885 141.71 149.049 142.649 149.894 143.853C150.739 145.049 151.175 146.424 151.202 147.979H146.389ZM167.094 139.094L158.196 172.153H153.922L162.82 139.094H167.094ZM175.089 155.866V168H170.208V140.388H174.981V150.81H175.224C175.709 149.642 176.46 148.72 177.475 148.046C178.5 147.363 179.803 147.022 181.385 147.022C182.823 147.022 184.077 147.323 185.147 147.925C186.216 148.527 187.043 149.408 187.628 150.567C188.221 151.727 188.517 153.143 188.517 154.814V168H183.637V155.569C183.637 154.176 183.277 153.093 182.558 152.32C181.848 151.538 180.85 151.147 179.565 151.147C178.702 151.147 177.929 151.336 177.246 151.713C176.572 152.082 176.042 152.617 175.655 153.318C175.278 154.019 175.089 154.868 175.089 155.866Z" fill="#283030" fill-opacity="0.8"/>
</g>
<g filter="url(#filter2_d_1062_414)">
<circle cx="247.5" cy="77.5" r="32.5" fill="#FF4346"/>
</g>
<path d="M245.467 68.5573C245.963 68.4838 246.474 68.4444 247 68.4444C253.223 68.4444 257.306 73.9504 258.678 76.1283C258.844 76.3919 258.927 76.5238 258.974 76.727C259.009 76.8797 259.009 77.1206 258.974 77.2733C258.927 77.4765 258.844 77.6092 258.676 77.8746C258.311 78.4546 257.754 79.2698 257.015 80.1539M240.568 70.5406C237.933 72.3332 236.144 74.8237 235.323 76.1265C235.156 76.3912 235.073 76.5235 235.026 76.7268C234.991 76.8795 234.991 77.1203 235.026 77.273C235.073 77.4763 235.156 77.6081 235.322 77.8717C236.694 80.0496 240.777 85.5556 247 85.5556C249.509 85.5556 251.671 84.6604 253.447 83.4492M236.029 66L257.971 88M244.414 74.4073C243.752 75.0708 243.343 75.9875 243.343 77C243.343 79.025 244.98 80.6667 247 80.6667C248.01 80.6667 248.924 80.2563 249.586 79.5927" stroke="white" stroke-width="2" stroke-linecap="round" stroke-linejoin="round"/>
<defs>
<filter id="filter0_d_1062_414" x="0" y="27" width="322" height="240" filterUnits="userSpaceOnUse" color-interpolation-filters="sRGB">
<feFlood flood-opacity="0" result="BackgroundImageFix"/>
<feColorMatrix in="SourceAlpha" type="matrix" values="0 0 0 0 0 0 0 0 0 0 0 0 0 0 0 0 0 0 127 0" result="hardAlpha"/>
<feOffset dy="10"/>
<feGaussianBlur stdDeviation="30"/>
<feComposite in2="hardAlpha" operator="out"/>
<feColorMatrix type="matrix" values="0 0 0 0 0 0 0 0 0 0 0 0 0 0 0 0 0 0 0.1 0"/>
<feBlend mode="normal" in2="BackgroundImageFix" result="effect1_dropShadow_1062_414"/>
<feBlend mode="normal" in="SourceGraphic" in2="effect1_dropShadow_1062_414" result="shape"/>
</filter>
<filter id="filter1_f_1062_414" x="70.0916" y="124.937" width="130.426" height="59.2153" filterUnits="userSpaceOnUse" color-interpolation-filters="sRGB">
<feFlood flood-opacity="0" result="BackgroundImageFix"/>
<feBlend mode="normal" in="SourceGraphic" in2="BackgroundImageFix" result="shape"/>
<feGaussianBlur stdDeviation="6" result="effect1_foregroundBlur_1062_414"/>
</filter>
<filter id="filter2_d_1062_414" x="153.7" y="0.700001" width="187.6" height="187.6" filterUnits="userSpaceOnUse" color-interpolation-filters="sRGB">
<feFlood flood-opacity="0" result="BackgroundImageFix"/>
<feColorMatrix in="SourceAlpha" type="matrix" values="0 0 0 0 0 0 0 0 0 0 0 0 0 0 0 0 0 0 127 0" result="hardAlpha"/>
<feOffset dy="17"/>
<feGaussianBlur stdDeviation="30.65"/>
<feComposite in2="hardAlpha" operator="out"/>
<feColorMatrix type="matrix" values="0 0 0 0 0 0 0 0 0 0 0 0 0 0 0 0 0 0 0.25 0"/>
<feBlend mode="normal" in2="BackgroundImageFix" result="effect1_dropShadow_1062_414"/>
<feBlend mode="normal" in="SourceGraphic" in2="effect1_dropShadow_1062_414" result="shape"/>
</filter>
</defs>
</svg>
