<svg width="29" height="35" viewBox="0 0 29 35" fill="none" xmlns="http://www.w3.org/2000/svg">
<path d="M7.46539 10.7766C6.67481 8.95987 6.47737 7.09231 7.13492 5.2061C8.16699 2.24461 10.2701 0.449918 13.3731 0.0686096C16.5897 -0.326256 19.086 0.994765 20.8213 3.7351C20.8968 3.85373 20.9713 3.97321 21.0467 4.09184C21.0942 4.19098 21.1416 4.29012 21.1899 4.38926C21.7653 5.80264 22.0026 7.25585 21.745 8.776C20.9408 13.5237 16.016 16.3115 11.5284 14.5549C11.3708 14.4931 11.2141 14.4304 11.0565 14.3685C10.9938 14.3372 10.9311 14.3058 10.8684 14.2736C9.46429 13.5212 8.38985 12.434 7.59842 11.0588C7.55351 10.9656 7.50945 10.8707 7.46539 10.7766ZM13.4994 4.68922C13.829 4.20962 14.1535 4.07065 14.595 4.22063C14.9644 4.34604 15.1398 4.68583 15.1153 5.22644C15.0983 5.60605 14.9509 5.93737 14.7399 6.24411C14.4442 6.67372 14.1349 7.094 13.8519 7.53208C13.5333 8.02439 13.3485 8.57263 13.2731 9.15222C13.2087 9.64369 13.5392 10.0902 14.0078 10.1894C14.4832 10.2902 15.017 10.0182 15.0932 9.54285C15.2356 8.65228 15.7008 7.94898 16.2414 7.27025C16.6803 6.71947 16.9667 6.10345 17.0328 5.38828C17.1786 3.82153 16.3287 2.66066 14.845 2.42171C13.2181 2.16072 11.9445 2.96909 11.6081 4.47653C11.4318 5.26542 12.0368 5.83399 12.819 5.61453C13.3019 5.4942 13.4214 5.10696 13.4994 4.68922ZM15.1314 11.6994C15.1263 11.1257 14.7043 10.7139 14.1383 10.7291C13.5841 10.7444 13.1842 11.1486 13.1774 11.6994C13.1706 12.2696 13.5799 12.6789 14.1586 12.6814C14.7399 12.684 15.1365 12.2832 15.1314 11.6994Z" fill="#2CBFCA"/>
<path d="M8.58008 30.4439C8.58601 29.8389 8.58093 29.233 8.60041 28.628C8.66397 26.6969 10.2612 25.22 12.2356 24.9581C12.383 24.9387 12.4694 25.0149 12.5643 25.1047C12.7584 25.2886 12.9575 25.4683 13.2236 25.5445C13.3778 25.6606 13.5523 25.7157 13.7438 25.7233C14.5759 25.9479 15.3123 25.7377 15.9376 25.1802C16.1588 24.9827 16.3444 24.9514 16.6164 25.0047C18.7534 25.4267 19.9998 26.9291 20.0015 29.1051C20.0024 30.0643 19.9897 31.0235 20.0092 31.9818C20.0151 32.2869 19.9287 32.464 19.655 32.6165C18.6686 33.1639 17.6984 33.7393 16.7223 34.3027C15.1665 35.2001 13.5964 35.2374 12.011 34.3807C11.9491 34.3476 11.8822 34.3239 11.8178 34.2951C11.7331 34.2451 11.6492 34.196 11.5645 34.146C10.6773 33.6257 9.79433 33.097 8.89868 32.5902C8.67244 32.4623 8.57923 32.3208 8.59025 32.059C8.60804 31.637 8.58686 31.2124 8.58177 30.7896C8.58177 30.6744 8.58093 30.5591 8.58008 30.4439Z" fill="#C1C1C1"/>
<path d="M7.88128 27.8951C7.87196 27.9544 7.86349 28.0137 7.85417 28.0731C7.85247 28.1027 7.85078 28.1315 7.84909 28.1612C7.84824 28.6967 7.84739 29.2322 7.84654 29.7686C7.81095 30.1643 7.80756 30.56 7.84909 30.9557C7.84993 31.0964 7.85163 31.2371 7.85247 31.3777C7.85332 31.4074 7.85332 31.4362 7.85417 31.4658C7.85163 31.5497 7.84993 31.6336 7.84739 31.7184C7.84485 31.7743 7.84315 31.8302 7.84061 31.8861C7.82366 31.8997 7.8135 31.9166 7.81011 31.9378C7.75588 31.9209 7.7008 31.9039 7.64657 31.887C7.59403 31.8582 7.54234 31.8294 7.48981 31.8006C7.42287 31.7124 7.32966 31.6684 7.22713 31.6387C5.23839 30.4838 3.23271 29.3559 1.26601 28.1637C-0.170252 27.2926 -0.204994 27.1969 0.282234 25.62C0.295791 25.5937 0.308502 25.5674 0.322059 25.5403C0.336464 25.5098 0.350022 25.4802 0.364427 25.4497C0.659305 24.9455 1.03214 24.5074 1.477 24.1295C1.50835 24.0905 1.54055 24.0507 1.5719 24.0117C1.59648 23.9888 1.62105 23.9659 1.64562 23.9431C2.2125 23.7414 2.72854 23.4135 3.33778 23.3118C3.63775 23.2618 3.84789 23.2923 4.09108 23.5118C4.97148 24.3057 6.33826 24.3456 7.22967 23.5694C7.57285 23.2703 7.8779 23.2364 8.25497 23.3626C8.36427 23.3991 8.4685 23.4304 8.58289 23.4202C8.65407 23.4872 8.74135 23.5092 8.83625 23.5084C9.29806 23.7473 9.75647 23.988 10.1539 24.3345C10.3708 24.5235 10.392 24.6125 10.1073 24.7624C8.99386 25.3488 8.24734 26.2428 7.93636 27.4782C7.91603 27.5587 7.91433 27.6443 7.90416 27.7282C7.89569 27.7833 7.88891 27.8392 7.88128 27.8951Z" fill="#C1C1C1"/>
<path d="M20.7568 31.5492C20.7568 31.4356 20.7576 31.3221 20.7576 31.2094C20.7652 30.6044 20.7873 29.9994 20.7763 29.3952C20.7661 28.8631 20.8508 28.3258 20.7119 27.7988C20.5026 26.2727 19.5603 25.3067 18.2139 24.5882C18.7918 23.9645 19.479 23.5959 20.2628 23.3799C20.6847 23.2629 21.0211 23.2612 21.4101 23.5925C22.3049 24.3552 23.6496 24.2967 24.5182 23.5087C24.763 23.2866 24.9749 23.2587 25.274 23.318C26.928 23.6459 28.1897 24.8161 28.5346 26.332C28.66 26.882 28.5871 27.3183 28.0923 27.6598C27.7906 27.8683 27.4958 28.0852 27.1772 28.2691C25.0757 29.4833 22.9751 30.7001 20.8737 31.9161C20.7263 31.8271 20.8135 31.6653 20.7568 31.5492Z" fill="#C1C1C1"/>
<path d="M17.0592 21.9751C16.861 22.8402 16.5339 23.6359 15.8814 24.2697C14.9764 25.1493 13.7452 25.1823 12.8013 24.3451C11.5964 23.2766 11.1134 21.1091 11.7591 19.6347C12.2031 18.6196 13.0258 18.1289 14.091 17.9883C14.2859 17.9959 14.4816 18.0035 14.6765 18.0112C16.5652 18.3908 17.1355 19.6516 17.133 21.4175C17.0499 21.5955 17.0567 21.7853 17.0592 21.9751Z" fill="#C1C1C1"/>
<path d="M2.89008 19.4632C2.8672 17.727 3.74845 16.5822 5.29571 16.3424C6.66334 16.1297 7.94708 16.8796 8.3233 18.21C8.78172 19.8318 8.4682 21.3265 7.27852 22.5535C6.31508 23.5475 4.97626 23.4881 4.02469 22.4772C3.22818 21.6299 2.92228 20.5978 2.89008 19.4632Z" fill="#C1C1C1"/>
<path d="M23.1605 16.2981C23.2977 16.3286 23.4358 16.3574 23.5723 16.3896C24.5077 16.609 25.2127 17.1496 25.4805 18.0682C25.972 19.7502 25.722 21.3135 24.4416 22.6007C23.6019 23.4455 22.4139 23.4743 21.4937 22.7167C20.2015 21.6533 19.6889 19.3443 20.4176 17.836C20.8845 16.8692 21.6971 16.4116 22.7325 16.293C22.8757 16.2955 23.0181 16.2972 23.1605 16.2981Z" fill="#C1C1C1"/>
</svg>
