<svg width="344" height="37" viewBox="0 0 344 37" fill="none" xmlns="http://www.w3.org/2000/svg">
<path fill-rule="evenodd" clip-rule="evenodd" d="M14.3703 9.91645C9.7092 9.91645 5.93061 13.695 5.93061 18.3562C5.93061 23.0173 9.7092 26.7959 14.3703 26.7959H18.9323C20.57 26.7959 21.8976 28.1235 21.8976 29.7612C21.8976 31.3989 20.57 32.7265 18.9323 32.7265H14.3703C6.43381 32.7265 0 26.2927 0 18.3562C0 10.4197 6.43381 3.98584 14.3703 3.98584H18.9323C20.57 3.98584 21.8976 5.31345 21.8976 6.95114C21.8976 8.58884 20.57 9.91645 18.9323 9.91645H14.3703ZM29.653 6.95114C29.653 5.31345 30.9807 3.98584 32.6183 3.98584H37.1804C45.1169 3.98584 51.5507 10.4197 51.5507 18.3562C51.5507 26.2927 45.1169 32.7265 37.1804 32.7265H32.6183C30.9807 32.7265 29.653 31.3989 29.653 29.7612C29.653 28.1235 30.9807 26.7959 32.6183 26.7959H37.1804C41.8415 26.7959 45.6201 23.0173 45.6201 18.3562C45.6201 13.695 41.8415 9.91645 37.1804 9.91645H32.6183C30.9807 9.91645 29.653 8.58884 29.653 6.95114ZM11.405 18.3562C11.405 16.7185 12.7326 15.3909 14.3703 15.3909L37.1804 15.3909C38.818 15.3909 40.1457 16.7185 40.1457 18.3562C40.1457 19.9939 38.818 21.3215 37.1804 21.3215L14.3703 21.3215C12.7326 21.3215 11.405 19.9939 11.405 18.3562Z" fill="#2CBFCA"/>
<path d="M322.641 30.085L324.455 19.4576H325.622L333.074 11.0983H343.118L330.871 24.1233H328.343L322.641 30.085ZM313.634 35.9819L319.142 2.80371H328.084L322.576 35.9819H313.634ZM328.991 35.9819L324.909 26.1322L331.843 19.7816L339.23 35.9819H328.991Z" fill="#2CBFCA"/>
<path d="M295.481 21.9855L293.148 35.9826H284.205L288.353 11.0989H296.842L296.064 15.8294H296.323C297.112 14.2418 298.262 13.0051 299.774 12.1195C301.297 11.2231 302.976 10.7749 304.812 10.7749C306.573 10.7749 308.036 11.1745 309.202 11.9737C310.369 12.7729 311.195 13.8746 311.681 15.2786C312.167 16.6826 312.253 18.2918 311.94 20.1063L309.283 35.9826H300.341L302.674 21.9855C302.879 20.7543 302.728 19.7877 302.22 19.0857C301.723 18.3836 300.902 18.0326 299.758 18.0326C299.034 18.0326 298.37 18.1946 297.765 18.5186C297.171 18.8319 296.674 19.2855 296.275 19.8795C295.886 20.4627 295.621 21.1647 295.481 21.9855Z" fill="#2CBFCA"/>
<path d="M270.642 35.9815L274.79 11.0978H283.732L279.585 35.9815H270.642ZM279.65 8.50577C278.44 8.50577 277.463 8.10617 276.717 7.30695C275.972 6.49694 275.697 5.53572 275.891 4.4233C276.086 3.28928 276.68 2.32806 277.673 1.53964C278.667 0.740427 279.769 0.34082 280.978 0.34082C282.199 0.34082 283.171 0.740427 283.894 1.53964C284.618 2.32806 284.888 3.28928 284.704 4.4233C284.531 5.53572 283.948 6.49694 282.955 7.30695C281.972 8.10617 280.87 8.50577 279.65 8.50577Z" fill="#2CBFCA"/>
<path d="M244.45 35.9819L249.958 2.80371H258.965L254.689 28.7242H268.102L266.871 35.9819H244.45Z" fill="#2CBFCA"/>
<path d="M224.496 36.3714C222.919 36.3714 221.564 36.1122 220.43 35.5938C219.306 35.0646 218.486 34.2653 217.967 33.1961C217.46 32.1161 217.346 30.7553 217.627 29.1136C217.854 27.7528 218.28 26.5918 218.907 25.6306C219.533 24.6694 220.311 23.8809 221.24 23.2653C222.168 22.6497 223.211 22.1799 224.366 21.8559C225.533 21.5211 226.764 21.3051 228.06 21.2079C229.464 21.0999 230.603 20.9649 231.478 20.8029C232.353 20.6409 233.006 20.4195 233.438 20.1387C233.87 19.8579 234.13 19.4799 234.216 19.0047V18.9399C234.313 18.2918 234.14 17.795 233.698 17.4494C233.266 17.1038 232.661 16.931 231.883 16.931C231.041 16.931 230.312 17.1146 229.696 17.4818C229.091 17.849 228.676 18.4214 228.449 19.1991H220.219C220.565 17.687 221.272 16.2938 222.341 15.0194C223.421 13.7342 224.852 12.7081 226.634 11.9413C228.427 11.1637 230.566 10.7749 233.05 10.7749C234.821 10.7749 236.376 10.9855 237.715 11.4067C239.055 11.8171 240.162 12.3949 241.036 13.1401C241.922 13.8746 242.543 14.7386 242.899 15.7322C243.267 16.715 243.353 17.7842 243.159 18.9399L240.307 35.9826H231.948L232.531 32.4833H232.337C231.689 33.4121 230.96 34.1627 230.15 34.7352C229.351 35.3076 228.476 35.7234 227.525 35.9826C226.586 36.2418 225.576 36.3714 224.496 36.3714ZM228.384 30.7337C229.054 30.7337 229.712 30.5933 230.36 30.3125C231.008 30.0317 231.565 29.6267 232.029 29.0974C232.493 28.5682 232.79 27.9256 232.92 27.1696L233.244 25.096C233.006 25.1932 232.742 25.285 232.45 25.3714C232.169 25.447 231.872 25.5226 231.559 25.5982C231.257 25.6738 230.933 25.744 230.587 25.8088C230.252 25.8736 229.907 25.9384 229.55 26.0032C228.838 26.1112 228.238 26.2894 227.752 26.5378C227.266 26.7754 226.888 27.0724 226.618 27.4288C226.348 27.7744 226.181 28.1632 226.116 28.5952C226.019 29.2757 226.175 29.8049 226.586 30.1829C227.007 30.5501 227.606 30.7337 228.384 30.7337Z" fill="#283030"/>
<path d="M174.789 35.9826L178.936 11.0989H187.425L186.648 15.8294H186.907C187.674 14.2742 188.759 13.0429 190.163 12.1357C191.567 11.2285 193.139 10.7749 194.878 10.7749C196.616 10.7749 198.042 11.2393 199.154 12.1681C200.267 13.0861 200.828 14.3066 200.839 15.8294H201.098C201.768 14.3066 202.864 13.0861 204.387 12.1681C205.91 11.2393 207.6 10.7749 209.458 10.7749C211.823 10.7749 213.621 11.5417 214.853 13.0753C216.095 14.609 216.5 16.6502 216.068 19.1991L213.281 35.9826H204.339L206.801 21.4671C206.952 20.3763 206.801 19.5231 206.347 18.9075C205.894 18.281 205.203 17.9678 204.274 17.9678C203.356 17.9678 202.578 18.281 201.941 18.9075C201.314 19.5231 200.926 20.3763 200.774 21.4671L198.312 35.9826H189.758L192.221 21.4671C192.372 20.3763 192.221 19.5231 191.767 18.9075C191.313 18.281 190.622 17.9678 189.693 17.9678C189.089 17.9678 188.538 18.1082 188.041 18.389C187.555 18.6698 187.15 19.0749 186.826 19.6041C186.513 20.1225 186.302 20.7435 186.194 21.4671L183.732 35.9826H174.789Z" fill="#283030"/>
<path d="M154.943 35.9826L159.091 11.0989H167.774L166.996 15.8294H167.255C168.001 14.0798 168.935 12.7999 170.058 11.9899C171.181 11.1799 172.407 10.7749 173.736 10.7749C174.124 10.7749 174.497 10.8073 174.853 10.8721C175.221 10.9261 175.582 11.0017 175.939 11.0989L174.643 18.7455C174.222 18.5834 173.698 18.47 173.071 18.4052C172.445 18.3296 171.889 18.2918 171.403 18.2918C170.539 18.2918 169.729 18.4916 168.973 18.8913C168.227 19.2801 167.59 19.8309 167.061 20.5437C166.543 21.2457 166.197 22.0719 166.024 23.0223L163.886 35.9826H154.943Z" fill="#283030"/>
<path d="M134.86 36.3714C133.283 36.3714 131.927 36.1122 130.793 35.5938C129.67 35.0646 128.849 34.2653 128.331 33.1961C127.823 32.1161 127.71 30.7553 127.991 29.1136C128.217 27.7528 128.644 26.5918 129.27 25.6306C129.897 24.6694 130.674 23.8809 131.603 23.2653C132.532 22.6497 133.574 22.1799 134.73 21.8559C135.896 21.5211 137.128 21.3051 138.424 21.2079C139.828 21.0999 140.967 20.9649 141.842 20.8029C142.717 20.6409 143.37 20.4195 143.802 20.1387C144.234 19.8579 144.493 19.4799 144.58 19.0047V18.9399C144.677 18.2918 144.504 17.795 144.061 17.4494C143.629 17.1038 143.024 16.931 142.247 16.931C141.404 16.931 140.675 17.1146 140.06 17.4818C139.455 17.849 139.039 18.4214 138.812 19.1991H130.583C130.928 17.687 131.636 16.2938 132.705 15.0194C133.785 13.7342 135.216 12.7081 136.998 11.9413C138.791 11.1637 140.929 10.7749 143.413 10.7749C145.185 10.7749 146.74 10.9855 148.079 11.4067C149.418 11.8171 150.525 12.3949 151.4 13.1401C152.286 13.8746 152.907 14.7386 153.263 15.7322C153.63 16.715 153.717 17.7842 153.522 18.9399L150.671 35.9826H142.312L142.895 32.4833H142.7C142.052 33.4121 141.323 34.1627 140.513 34.7352C139.714 35.3076 138.839 35.7234 137.889 35.9826C136.949 36.2418 135.94 36.3714 134.86 36.3714ZM138.748 30.7337C139.417 30.7337 140.076 30.5933 140.724 30.3125C141.372 30.0317 141.928 29.6267 142.393 29.0974C142.857 28.5682 143.154 27.9256 143.284 27.1696L143.608 25.096C143.37 25.1932 143.105 25.285 142.814 25.3714C142.533 25.447 142.236 25.5226 141.923 25.5982C141.62 25.6738 141.296 25.744 140.951 25.8088C140.616 25.8736 140.27 25.9384 139.914 26.0032C139.201 26.1112 138.602 26.2894 138.116 26.5378C137.63 26.7754 137.252 27.0724 136.982 27.4288C136.712 27.7744 136.544 28.1632 136.48 28.5952C136.382 29.2757 136.539 29.8049 136.949 30.1829C137.371 30.5501 137.97 30.7337 138.748 30.7337Z" fill="#283030"/>
<path d="M109.838 21.9849L107.505 35.9819H98.5629L104.071 2.80371H112.69L110.551 15.8288H110.81C111.62 14.2411 112.754 13.0045 114.212 12.1189C115.67 11.2225 117.323 10.7743 119.17 10.7743C120.919 10.7743 122.377 11.1739 123.544 11.9731C124.71 12.7723 125.536 13.8739 126.022 15.2779C126.508 16.682 126.6 18.2912 126.298 20.1056L123.641 35.9819H114.698L117.031 21.9849C117.226 20.7537 117.069 19.787 116.561 19.085C116.065 18.383 115.249 18.032 114.115 18.032C113.381 18.032 112.711 18.194 112.106 18.518C111.512 18.8312 111.016 19.2848 110.616 19.8788C110.227 20.462 109.968 21.1641 109.838 21.9849Z" fill="#283030"/>
<path d="M68.4301 35.9819L73.9382 2.80371H88.2593C90.7217 2.80371 92.7954 3.28972 94.4802 4.26174C96.165 5.23376 97.3747 6.59998 98.1091 8.36042C98.8435 10.1208 99.0163 12.1783 98.6275 14.5327C98.2387 16.9304 97.3747 18.9986 96.0354 20.7375C94.707 22.4655 93.0114 23.7993 90.9485 24.7389C88.8965 25.6677 86.5961 26.1322 84.0472 26.1322H75.4934L76.6599 19.1336H83.3992C84.4792 19.1336 85.4296 18.95 86.2505 18.5828C87.0713 18.2048 87.7355 17.6756 88.2431 16.9952C88.7507 16.304 89.0801 15.4832 89.2313 14.5327C89.3825 13.5823 89.3123 12.7723 89.0207 12.1027C88.7399 11.4223 88.2539 10.9039 87.5627 10.5475C86.8823 10.1802 86.0128 9.99665 84.9544 9.99665H81.7792L77.4375 35.9819H68.4301Z" fill="#283030"/>
</svg>
