<svg width="133" height="142" viewBox="0 0 133 142" fill="none" xmlns="http://www.w3.org/2000/svg">
<rect x="0.405273" y="0.816406" width="132.212" height="141.026" rx="16.0257" fill="white"/>
<path d="M13.5534 14.1134H14.901L18.0697 21.8531H18.179L21.3477 14.1134H22.6953V23.4375H21.6391V16.3534H21.5481L18.6343 23.4375H17.6145L14.7007 16.3534H14.6096V23.4375H13.5534V14.1134ZM27.6544 23.5832C27.0231 23.5832 26.4692 23.4329 25.9927 23.1325C25.5192 22.832 25.1489 22.4116 24.8818 21.8713C24.6178 21.3311 24.4857 20.6998 24.4857 19.9774C24.4857 19.249 24.6178 18.6131 24.8818 18.0698C25.1489 17.5265 25.5192 17.1046 25.9927 16.8041C26.4692 16.5036 27.0231 16.3534 27.6544 16.3534C28.2858 16.3534 28.8382 16.5036 29.3116 16.8041C29.7882 17.1046 30.1585 17.5265 30.4225 18.0698C30.6896 18.6131 30.8232 19.249 30.8232 19.9774C30.8232 20.6998 30.6896 21.3311 30.4225 21.8713C30.1585 22.4116 29.7882 22.832 29.3116 23.1325C28.8382 23.4329 28.2858 23.5832 27.6544 23.5832ZM27.6544 22.618C28.134 22.618 28.5286 22.4951 28.8382 22.2492C29.1477 22.0034 29.3769 21.6801 29.5256 21.2795C29.6744 20.8788 29.7487 20.4448 29.7487 19.9774C29.7487 19.51 29.6744 19.0744 29.5256 18.6708C29.3769 18.2671 29.1477 17.9408 28.8382 17.6919C28.5286 17.443 28.134 17.3186 27.6544 17.3186C27.1749 17.3186 26.7803 17.443 26.4707 17.6919C26.1611 17.9408 25.932 18.2671 25.7833 18.6708C25.6345 19.0744 25.5602 19.51 25.5602 19.9774C25.5602 20.4448 25.6345 20.8788 25.7833 21.2795C25.932 21.6801 26.1611 22.0034 26.4707 22.2492C26.7803 22.4951 27.1749 22.618 27.6544 22.618ZM33.5377 19.2307V23.4375H32.4633V16.4445H33.5013V17.5371H33.5924C33.7563 17.182 34.0052 16.8967 34.339 16.6812C34.6729 16.4627 35.1039 16.3534 35.632 16.3534C36.1055 16.3534 36.5198 16.4505 36.8749 16.6448C37.23 16.836 37.5062 17.1274 37.7035 17.5189C37.9008 17.9074 37.9995 18.3991 37.9995 18.994V23.4375H36.925V19.0668C36.925 18.5175 36.7824 18.0895 36.497 17.783C36.2117 17.4734 35.8202 17.3186 35.3224 17.3186C34.9795 17.3186 34.6729 17.3929 34.4028 17.5417C34.1357 17.6904 33.9247 17.9074 33.7699 18.1927C33.6151 18.478 33.5377 18.824 33.5377 19.2307ZM43.0041 16.4445V17.355H39.3801V16.4445H43.0041ZM40.4363 14.769H41.5108V21.4343C41.5108 21.7378 41.5548 21.9654 41.6428 22.1172C41.7339 22.2659 41.8492 22.3661 41.9888 22.4177C42.1315 22.4662 42.2817 22.4905 42.4395 22.4905C42.5579 22.4905 42.655 22.4845 42.7309 22.4723C42.8068 22.4571 42.8675 22.445 42.913 22.4359L43.1316 23.4011C43.0587 23.4284 42.957 23.4557 42.8265 23.483C42.696 23.5134 42.5306 23.5286 42.3303 23.5286C42.0268 23.5286 41.7293 23.4633 41.4379 23.3328C41.1496 23.2023 40.9098 23.0035 40.7186 22.7364C40.5304 22.4693 40.4363 22.1324 40.4363 21.7257V14.769ZM45.845 19.2307V23.4375H44.7706V14.1134H45.845V17.5371H45.9361C46.1 17.1759 46.3458 16.8891 46.6736 16.6766C47.0044 16.4612 47.4445 16.3534 47.9939 16.3534C48.4704 16.3534 48.8878 16.449 49.2459 16.6402C49.6041 16.8284 49.8818 17.1183 50.0791 17.5098C50.2794 17.8983 50.3796 18.393 50.3796 18.994V23.4375H49.3051V19.0668C49.3051 18.5114 49.1609 18.0819 48.8726 17.7784C48.5873 17.4719 48.1912 17.3186 47.6843 17.3186C47.3322 17.3186 47.0166 17.3929 46.7373 17.5417C46.4611 17.6904 46.2426 17.9074 46.0817 18.1927C45.9239 18.478 45.845 18.824 45.845 19.2307ZM53.4197 14.1134V23.4375H52.3452V14.1134H53.4197ZM56.0796 26.0599C55.8975 26.0599 55.7351 26.0447 55.5925 26.0144C55.4498 25.987 55.3512 25.9597 55.2965 25.9324L55.5697 24.9854C55.8307 25.0522 56.0614 25.0765 56.2617 25.0583C56.462 25.0401 56.6396 24.9505 56.7944 24.7897C56.9522 24.6318 57.0964 24.3754 57.2269 24.0203L57.4272 23.4739L54.8413 16.4445H56.0068L57.9371 22.017H58.01L59.9404 16.4445H61.1059L58.1375 24.4573C58.0039 24.8185 57.8385 25.1175 57.6412 25.3542C57.4439 25.594 57.2148 25.7715 56.9537 25.8869C56.6958 26.0022 56.4044 26.0599 56.0796 26.0599ZM67.4046 14.1134V23.4375H66.2755V14.1134H67.4046ZM70.5972 19.2307V23.4375H69.5228V16.4445H70.5608V17.5371H70.6519C70.8158 17.182 71.0646 16.8967 71.3985 16.6812C71.7324 16.4627 72.1634 16.3534 72.6915 16.3534C73.165 16.3534 73.5793 16.4505 73.9344 16.6448C74.2895 16.836 74.5657 17.1274 74.763 17.5189C74.9603 17.9074 75.0589 18.3991 75.0589 18.994V23.4375H73.9845V19.0668C73.9845 18.5175 73.8418 18.0895 73.5565 17.783C73.2712 17.4734 72.8797 17.3186 72.3819 17.3186C72.0389 17.3186 71.7324 17.3929 71.4623 17.5417C71.1952 17.6904 70.9842 17.9074 70.8294 18.1927C70.6746 18.478 70.5972 18.824 70.5972 19.2307ZM79.8632 23.5832C79.2076 23.5832 78.6431 23.4284 78.1696 23.1188C77.6961 22.8092 77.3319 22.3828 77.077 21.8395C76.822 21.2962 76.6945 20.6755 76.6945 19.9774C76.6945 19.2672 76.825 18.6404 77.0861 18.0971C77.3501 17.5508 77.7174 17.1243 78.1878 16.8178C78.6613 16.5082 79.2137 16.3534 79.845 16.3534C80.3367 16.3534 80.7799 16.4445 81.1744 16.6266C81.569 16.8087 81.8923 17.0636 82.1442 17.3914C82.3961 17.7192 82.5524 18.1017 82.6131 18.5387H81.5387C81.4567 18.22 81.2746 17.9378 80.9923 17.6919C80.7131 17.443 80.3367 17.3186 79.8632 17.3186C79.4444 17.3186 79.0771 17.4279 78.7615 17.6464C78.4489 17.8619 78.2045 18.1669 78.0285 18.5615C77.8555 18.953 77.769 19.4129 77.769 19.941C77.769 20.4812 77.854 20.9517 78.0239 21.3523C78.1969 21.753 78.4397 22.0641 78.7524 22.2857C79.068 22.5072 79.4383 22.618 79.8632 22.618C80.1425 22.618 80.3959 22.5694 80.6236 22.4723C80.8512 22.3752 81.0439 22.2356 81.2018 22.0535C81.3596 21.8713 81.4719 21.6528 81.5387 21.3979H82.6131C82.5524 21.8106 82.4022 22.1825 82.1624 22.5133C81.9256 22.8411 81.6115 23.1021 81.22 23.2964C80.8315 23.4876 80.3792 23.5832 79.8632 23.5832ZM87.0247 23.5832C86.3934 23.5832 85.8395 23.4329 85.363 23.1325C84.8895 22.832 84.5192 22.4116 84.2521 21.8713C83.988 21.3311 83.856 20.6998 83.856 19.9774C83.856 19.249 83.988 18.6131 84.2521 18.0698C84.5192 17.5265 84.8895 17.1046 85.363 16.8041C85.8395 16.5036 86.3934 16.3534 87.0247 16.3534C87.6561 16.3534 88.2085 16.5036 88.6819 16.8041C89.1585 17.1046 89.5288 17.5265 89.7928 18.0698C90.0599 18.6131 90.1935 19.249 90.1935 19.9774C90.1935 20.6998 90.0599 21.3311 89.7928 21.8713C89.5288 22.4116 89.1585 22.832 88.6819 23.1325C88.2085 23.4329 87.6561 23.5832 87.0247 23.5832ZM87.0247 22.618C87.5043 22.618 87.8989 22.4951 88.2085 22.2492C88.518 22.0034 88.7472 21.6801 88.8959 21.2795C89.0446 20.8788 89.119 20.4448 89.119 19.9774C89.119 19.51 89.0446 19.0744 88.8959 18.6708C88.7472 18.2671 88.518 17.9408 88.2085 17.6919C87.8989 17.443 87.5043 17.3186 87.0247 17.3186C86.5452 17.3186 86.1506 17.443 85.841 17.6919C85.5314 17.9408 85.3023 18.2671 85.1536 18.6708C85.0048 19.0744 84.9305 19.51 84.9305 19.9774C84.9305 20.4448 85.0048 20.8788 85.1536 21.2795C85.3023 21.6801 85.5314 22.0034 85.841 22.2492C86.1506 22.4951 86.5452 22.618 87.0247 22.618ZM91.8336 23.4375V16.4445H92.8716V17.5371H92.9627C93.1084 17.1638 93.3436 16.8739 93.6683 16.6675C93.9931 16.4581 94.3831 16.3534 94.8384 16.3534C95.2998 16.3534 95.6837 16.4581 95.9903 16.6675C96.2998 16.8739 96.5411 17.1638 96.7141 17.5371H96.787C96.9661 17.1759 97.2347 16.8891 97.5928 16.6766C97.951 16.4612 98.3805 16.3534 98.8813 16.3534C99.5065 16.3534 100.018 16.5492 100.416 16.9407C100.813 17.3292 101.012 17.9347 101.012 18.7573V23.4375H99.9375V18.7573C99.9375 18.2413 99.7964 17.8725 99.5141 17.6509C99.2318 17.4294 98.8995 17.3186 98.517 17.3186C98.0253 17.3186 97.6444 17.4673 97.3743 17.7648C97.1042 18.0592 96.9691 18.4325 96.9691 18.8847V23.4375H95.8764V18.648C95.8764 18.2504 95.7474 17.9302 95.4895 17.6874C95.2315 17.4415 94.8991 17.3186 94.4924 17.3186C94.2132 17.3186 93.9521 17.3929 93.7093 17.5417C93.4695 17.6904 93.2753 17.8968 93.1266 18.1608C92.9809 18.4219 92.908 18.7239 92.908 19.0668V23.4375H91.8336ZM105.908 23.5832C105.235 23.5832 104.653 23.4345 104.165 23.137C103.679 22.8365 103.304 22.4177 103.04 21.8805C102.779 21.3402 102.649 20.7119 102.649 19.9956C102.649 19.2793 102.779 18.648 103.04 18.1017C103.304 17.5523 103.672 17.1243 104.142 16.8178C104.615 16.5082 105.168 16.3534 105.799 16.3534C106.163 16.3534 106.523 16.4141 106.878 16.5355C107.233 16.6569 107.557 16.8542 107.848 17.1274C108.139 17.3975 108.371 17.7557 108.545 18.2018C108.718 18.648 108.804 19.1974 108.804 19.8499V20.3052H103.414V19.3764H107.711C107.711 18.9819 107.632 18.6298 107.475 18.3202C107.32 18.0106 107.098 17.7663 106.81 17.5872C106.525 17.4081 106.188 17.3186 105.799 17.3186C105.371 17.3186 105.001 17.4248 104.688 17.6373C104.379 17.8467 104.14 18.1199 103.974 18.4568C103.807 18.7937 103.723 19.1549 103.723 19.5403V20.1595C103.723 20.6876 103.814 21.1353 103.996 21.5026C104.181 21.8668 104.438 22.1445 104.766 22.3357C105.094 22.5239 105.474 22.618 105.908 22.618C106.191 22.618 106.446 22.5785 106.673 22.4996C106.904 22.4177 107.103 22.2963 107.27 22.1354C107.437 21.9715 107.566 21.7682 107.657 21.5253L108.695 21.8167C108.585 22.1688 108.402 22.4784 108.144 22.7455C107.886 23.0095 107.567 23.2159 107.188 23.3647C106.808 23.5103 106.382 23.5832 105.908 23.5832Z" fill="#27324E" fill-opacity="0.8"/>
<path d="M17.6953 49.0723V33.0466H18.7219V49.0723H17.6953ZM20.6563 38.1736C20.5979 37.6268 20.3516 37.2012 19.9176 36.8965C19.4877 36.5919 18.9285 36.4395 18.2399 36.4395C17.7558 36.4395 17.3405 36.5126 16.9942 36.6586C16.6478 36.8047 16.3828 37.0029 16.1991 37.2533C16.0155 37.5037 15.9216 37.7896 15.9174 38.111C15.9174 38.3781 15.9779 38.6097 16.099 38.8058C16.2242 39.002 16.3932 39.1689 16.606 39.3066C16.8189 39.4402 17.0547 39.5529 17.3134 39.6447C17.5722 39.7365 17.833 39.8137 18.0959 39.8763L19.2978 40.1768C19.782 40.2895 20.2473 40.4418 20.6938 40.6338C21.1446 40.8257 21.5473 41.0678 21.902 41.3599C22.2609 41.6521 22.5447 42.0047 22.7534 42.4179C22.9621 42.831 23.0664 43.3151 23.0664 43.8702C23.0664 44.6214 22.8744 45.2829 22.4905 45.8546C22.1065 46.4222 21.5515 46.8667 20.8253 47.188C20.1033 47.5052 19.229 47.6638 18.2023 47.6638C17.2049 47.6638 16.3389 47.5094 15.6044 47.2005C14.8741 46.8917 14.3023 46.441 13.8892 45.8484C13.4802 45.2558 13.259 44.5338 13.2256 43.6824H15.5105C15.5439 44.1289 15.6816 44.5004 15.9237 44.7967C16.1657 45.093 16.4808 45.3142 16.869 45.4603C17.2612 45.6063 17.6995 45.6794 18.1836 45.6794C18.6885 45.6794 19.1309 45.6042 19.5107 45.454C19.8946 45.2996 20.1951 45.0867 20.4121 44.8155C20.6292 44.54 20.7397 44.2187 20.7439 43.8514C20.7397 43.5175 20.6417 43.2421 20.4497 43.0251C20.2577 42.8039 19.9885 42.6203 19.6422 42.4742C19.2999 42.324 18.8993 42.1904 18.4402 42.0736L16.9816 41.698C15.9258 41.4267 15.0911 41.0156 14.4776 40.4647C13.8683 39.9097 13.5636 39.1731 13.5636 38.2549C13.5636 37.4996 13.7681 36.8381 14.1771 36.2705C14.5903 35.7029 15.1516 35.2626 15.8611 34.9496C16.5706 34.6325 17.3739 34.4739 18.2712 34.4739C19.181 34.4739 19.9781 34.6325 20.6625 34.9496C21.3511 35.2626 21.8916 35.6988 22.2839 36.258C22.6762 36.813 22.8786 37.4516 22.8911 38.1736H20.6563ZM25.0117 47.4697V45.792L29.4626 41.4288C29.8883 40.9989 30.243 40.6171 30.5268 40.2832C30.8106 39.9493 31.0234 39.6259 31.1653 39.3129C31.3072 38.9999 31.3782 38.666 31.3782 38.3113C31.3782 37.9065 31.2864 37.5601 31.1027 37.2721C30.9191 36.98 30.6666 36.7546 30.3453 36.596C30.0239 36.4374 29.6587 36.3581 29.2498 36.3581C28.8282 36.3581 28.4589 36.4458 28.1417 36.6211C27.8246 36.7922 27.5783 37.0363 27.403 37.3535C27.2319 37.6707 27.1464 38.0484 27.1464 38.4866H24.9366C24.9366 37.6728 25.1223 36.9654 25.4937 36.3644C25.8652 35.7634 26.3764 35.2981 27.0274 34.9684C27.6827 34.6387 28.4339 34.4739 29.2811 34.4739C30.1408 34.4739 30.8962 34.6345 31.5472 34.9559C32.1982 35.2772 32.7032 35.7175 33.0621 36.2768C33.4252 36.836 33.6068 37.4745 33.6068 38.1923C33.6068 38.6723 33.5149 39.1439 33.3313 39.6071C33.1477 40.0704 32.8242 40.5837 32.361 41.1471C31.9019 41.7105 31.2571 42.3928 30.4266 43.1941L28.2169 45.4415V45.5291H33.8008V47.4697H25.0117ZM35.4535 45.0909V43.2442L40.8934 34.6491H42.4334V37.2784H41.4944L37.8323 43.0814V43.1816H45.4257V45.0909H35.4535ZM41.5695 47.4697V44.5275L41.5946 43.7012V34.6491H43.7856V47.4697H41.5695ZM51.883 47.645C51.0483 47.645 50.3013 47.4885 49.6419 47.1755C48.9825 46.8583 48.4587 46.4243 48.0706 45.8734C47.6866 45.3225 47.4821 44.6924 47.4571 43.9829H49.7107C49.7525 44.5087 49.9799 44.9386 50.3931 45.2724C50.8062 45.6021 51.3029 45.767 51.883 45.767C52.3379 45.767 52.7427 45.6627 53.0974 45.454C53.4521 45.2453 53.7318 44.9553 53.9363 44.5838C54.1407 44.2124 54.2409 43.7888 54.2367 43.3131C54.2409 42.8289 54.1387 42.3991 53.93 42.0235C53.7213 41.6479 53.4355 41.3537 53.0724 41.1408C52.7093 40.9238 52.2919 40.8153 51.8204 40.8153C51.4364 40.8111 51.0587 40.8821 50.6873 41.0281C50.3159 41.1742 50.0216 41.3662 49.8046 41.6041L47.7075 41.2598L48.3773 34.6491H55.8143V36.5898H50.2992L49.9298 39.989H50.0049C50.2428 39.7094 50.5788 39.4777 51.0128 39.2941C51.4468 39.1063 51.9226 39.0124 52.4401 39.0124C53.2163 39.0124 53.9091 39.196 54.5184 39.5633C55.1278 39.9264 55.6077 40.4272 55.9582 41.0657C56.3088 41.7042 56.4841 42.4346 56.4841 43.2567C56.4841 44.1039 56.2879 44.8593 55.8956 45.5229C55.5075 46.1822 54.9671 46.7018 54.2743 47.0816C53.5857 47.4572 52.7886 47.645 51.883 47.645ZM63.3201 47.7139C62.2892 47.7139 61.4045 47.453 60.6658 46.9314C59.9313 46.4055 59.3658 45.6481 58.9693 44.659C58.577 43.6657 58.3809 42.47 58.3809 41.072C58.3851 39.6739 58.5833 38.4845 58.9756 37.5037C59.3721 36.5188 59.9376 35.7676 60.6721 35.2501C61.4108 34.7326 62.2934 34.4739 63.3201 34.4739C64.3467 34.4739 65.2294 34.7326 65.9681 35.2501C66.7068 35.7676 67.2722 36.5188 67.6645 37.5037C68.061 38.4886 68.2592 39.6781 68.2592 41.072C68.2592 42.4742 68.061 43.672 67.6645 44.6652C67.2722 45.6543 66.7068 46.4097 65.9681 46.9314C65.2336 47.453 64.3509 47.7139 63.3201 47.7139ZM63.3201 45.7545C64.1214 45.7545 64.7536 45.3601 65.2169 44.5713C65.6843 43.7784 65.918 42.6119 65.918 41.072C65.918 40.0537 65.8116 39.1981 65.5987 38.5053C65.3859 37.8126 65.0854 37.2909 64.6973 36.9403C64.3092 36.5856 63.8501 36.4082 63.3201 36.4082C62.523 36.4082 61.8928 36.8047 61.4295 37.5976C60.9663 38.3864 60.7326 39.5445 60.7284 41.072C60.7242 42.0944 60.8265 42.9541 61.0352 43.6511C61.248 44.348 61.5485 44.8739 61.9366 45.2286C62.3247 45.5792 62.7859 45.7545 63.3201 45.7545ZM71.2609 47.6074C70.8812 47.6074 70.5556 47.4739 70.2844 47.2068C70.0131 46.9397 69.8796 46.6142 69.8837 46.2302C69.8796 45.8546 70.0131 45.5333 70.2844 45.2662C70.5556 44.9991 70.8812 44.8655 71.2609 44.8655C71.6282 44.8655 71.9475 44.9991 72.2187 45.2662C72.4942 45.5333 72.634 45.8546 72.6381 46.2302C72.634 46.4848 72.5672 46.7164 72.4378 46.9251C72.3126 47.1338 72.1457 47.3007 71.937 47.4259C71.7325 47.5469 71.5072 47.6074 71.2609 47.6074ZM79.1486 47.645C78.5351 47.6408 77.9362 47.5344 77.352 47.3257C76.7677 47.1129 76.2418 46.7686 75.7744 46.2928C75.307 45.8129 74.9356 45.1765 74.6601 44.3835C74.3847 43.5864 74.2491 42.5994 74.2532 41.4225C74.2532 40.3249 74.3701 39.3463 74.6038 38.4866C74.8375 37.6268 75.1735 36.9007 75.6117 36.3081C76.0499 35.7113 76.5778 35.2564 77.1955 34.9434C77.8173 34.6304 78.5122 34.4739 79.2801 34.4739C80.0855 34.4739 80.7992 34.6325 81.421 34.9496C82.047 35.2668 82.552 35.7008 82.9359 36.2517C83.3199 36.7984 83.5578 37.4161 83.6496 38.1047H81.3647C81.2478 37.6122 81.0078 37.2199 80.6447 36.9278C80.2858 36.6315 79.8309 36.4833 79.2801 36.4833C78.3911 36.4833 77.7067 36.8694 77.2268 37.6415C76.751 38.4135 76.511 39.4736 76.5069 40.8216H76.5945C76.799 40.4543 77.064 40.1392 77.3895 39.8763C77.715 39.6134 78.0823 39.411 78.4913 39.2691C78.9045 39.123 79.3406 39.05 79.7996 39.05C80.5508 39.05 81.2248 39.2294 81.8216 39.5883C82.4226 39.9472 82.8984 40.4418 83.2489 41.072C83.5995 41.698 83.7727 42.4158 83.7685 43.2254C83.7727 44.0684 83.5807 44.8259 83.1926 45.4978C82.8045 46.1655 82.264 46.6914 81.5712 47.0753C80.8785 47.4593 80.0709 47.6492 79.1486 47.645ZM79.1361 45.767C79.591 45.767 79.9979 45.6564 80.3568 45.4352C80.7157 45.214 80.9995 44.9156 81.2082 44.54C81.4168 44.1644 81.5191 43.7429 81.5149 43.2755C81.5191 42.8164 81.4189 42.4012 81.2144 42.0297C81.0141 41.6583 80.7366 41.3641 80.3818 41.1471C80.0271 40.9301 79.6223 40.8216 79.1674 40.8216C78.8293 40.8216 78.5142 40.8862 78.2221 41.0156C77.93 41.145 77.6754 41.3244 77.4584 41.554C77.2414 41.7793 77.0703 42.0423 76.9451 42.3427C76.824 42.6391 76.7614 42.9562 76.7573 43.2943C76.7614 43.7408 76.8658 44.1519 77.0703 44.5275C77.2748 44.9031 77.5565 45.2036 77.9154 45.429C78.2743 45.6543 78.6812 45.767 79.1361 45.767ZM85.6528 45.0909V43.2442L91.0928 34.6491H92.6327V37.2784H91.6937L88.0316 43.0814V43.1816H95.625V45.0909H85.6528ZM91.7689 47.4697V44.5275L91.7939 43.7012V34.6491H93.9849V47.4697H91.7689Z" fill="#27324E"/>
<path d="M12.4253 107.787H24.4446L29.6529 98.5725L38.8677 102.98L44.0761 92.9635H50.4864L54.8935 98.5725L59.3005 110.191L63.307 98.5725L68.916 92.9635L72.5218 96.5693L78.1308 84.9507L92.9545 79.3417L97.7623 83.3481L113.387 73.332H119.798" stroke="#2CBFCA" stroke-width="0.801286"/>
<path d="M24.4446 107.787H12.4253V131.025H119.798V73.332H113.387L97.7623 83.3481L92.9545 79.3417L78.1308 84.9507L72.5218 96.5693L68.916 92.9635L63.307 98.5725L59.3005 110.191L54.8935 98.5725L50.4864 92.9635H44.0761L38.8677 102.98L29.6529 98.5725L24.4446 107.787Z" fill="url(#paint0_linear_1062_648)" fill-opacity="0.6"/>
<circle cx="12.4248" cy="107.386" r="1.60257" fill="#2CBFCA"/>
<circle cx="119.797" cy="72.9307" r="1.60257" fill="#2CBFCA"/>
<defs>
<linearGradient id="paint0_linear_1062_648" x1="68.5153" y1="32.0658" x2="63.7076" y2="128.621" gradientUnits="userSpaceOnUse">
<stop stop-color="#2CBFCA"/>
<stop offset="1" stop-color="#2CBFCA" stop-opacity="0"/>
</linearGradient>
</defs>
</svg>
