<svg width="44" height="44" viewBox="0 0 44 44" fill="none" xmlns="http://www.w3.org/2000/svg">
<circle cx="22" cy="22" r="21.5" stroke="#4C4C58" stroke-opacity="0.1"/>
<path d="M20.5689 28.75C21.0978 29.2168 21.7925 29.5 22.5533 29.5C23.3141 29.5 24.0088 29.2168 24.5377 28.75M27.0533 19C27.0533 17.8065 26.5792 16.6619 25.7353 15.818C24.8914 14.9741 23.7468 14.5 22.5533 14.5C21.3598 14.5 20.2152 14.9741 19.3713 15.818C18.5274 16.6619 18.0533 17.8065 18.0533 19C18.0533 21.3176 17.4687 22.9045 16.8155 23.9541C16.2646 24.8394 15.9892 25.2821 15.9993 25.4056C16.0105 25.5423 16.0394 25.5944 16.1496 25.6762C16.2491 25.75 16.6977 25.75 17.5949 25.75H27.5117C28.4089 25.75 28.8575 25.75 28.957 25.6762C29.0672 25.5944 29.0961 25.5423 29.1073 25.4056C29.1174 25.2821 28.842 24.8394 28.2911 23.9541C27.6379 22.9045 27.0533 21.3176 27.0533 19Z" stroke="#4C4C58" stroke-width="1.5" stroke-linecap="round" stroke-linejoin="round"/>
</svg>
