<svg width="24" height="10" viewBox="0 0 24 10" fill="none" xmlns="http://www.w3.org/2000/svg">
<path d="M12 6C12.5523 6 13 5.55228 13 5C13 4.44772 12.5523 4 12 4C11.4477 4 11 4.44772 11 5C11 5.55228 11.4477 6 12 6Z" stroke="#7E8383" stroke-width="1.5" stroke-linecap="round" stroke-linejoin="round"/>
<path d="M19 6C19.5523 6 20 5.55228 20 5C20 4.44772 19.5523 4 19 4C18.4477 4 18 4.44772 18 5C18 5.55228 18.4477 6 19 6Z" stroke="#7E8383" stroke-width="1.5" stroke-linecap="round" stroke-linejoin="round"/>
<path d="M5 6C5.55228 6 6 5.55228 6 5C6 4.44772 5.55228 4 5 4C4.44772 4 4 4.44772 4 5C4 5.55228 4.44772 6 5 6Z" stroke="#7E8383" stroke-width="1.5" stroke-linecap="round" stroke-linejoin="round"/>
</svg>
