<svg width="89" height="13" viewBox="0 0 89 13" fill="none" xmlns="http://www.w3.org/2000/svg">
<path d="M6.02985 0.376366C6.32988 -0.125455 7.05688 -0.125456 7.35691 0.376365L9.05956 3.22411C9.16778 3.40512 9.34524 3.53405 9.55083 3.58104L12.7853 4.32035C13.3553 4.45063 13.58 5.14204 13.1954 5.58246L11.0132 8.08177C10.8745 8.24063 10.8067 8.44925 10.8256 8.6593L11.122 11.964C11.1742 12.5463 10.586 12.9736 10.0483 12.744L6.997 11.4409C6.80306 11.3581 6.5837 11.3581 6.38976 11.4409L3.33843 12.744C2.80073 12.9736 2.21258 12.5463 2.26481 11.964L2.56121 8.6593C2.58005 8.44925 2.51226 8.24063 2.37356 8.08177L0.191338 5.58246C-0.193206 5.14204 0.0314466 4.45063 0.601422 4.32035L3.83594 3.58104C4.04152 3.53405 4.21899 3.40512 4.32721 3.22411L6.02985 0.376366Z" fill="#F7C80D"/>
<path d="M24.8282 0.376366C25.1282 -0.125455 25.8552 -0.125456 26.1553 0.376365L27.8579 3.22411C27.9661 3.40512 28.1436 3.53405 28.3492 3.58104L31.5837 4.32035C32.1537 4.45063 32.3783 5.14204 31.9938 5.58246L29.8115 8.08177C29.6728 8.24063 29.6051 8.44925 29.6239 8.6593L29.9203 11.964C29.9725 12.5463 29.3844 12.9736 28.8467 12.744L25.7953 11.4409C25.6014 11.3581 25.382 11.3581 25.1881 11.4409L22.1368 12.744C21.5991 12.9736 21.0109 12.5463 21.0632 11.964L21.3595 8.6593C21.3784 8.44925 21.3106 8.24063 21.1719 8.08177L18.9897 5.58246C18.6051 5.14204 18.8298 4.45063 19.3998 4.32035L22.6343 3.58104C22.8399 3.53405 23.0173 3.40512 23.1255 3.22411L24.8282 0.376366Z" fill="#F7C80D"/>
<path d="M43.6265 0.376366C43.9266 -0.125455 44.6536 -0.125456 44.9536 0.376365L46.6562 3.22411C46.7645 3.40512 46.9419 3.53405 47.1475 3.58104L50.382 4.32035C50.952 4.45063 51.1767 5.14204 50.7921 5.58246L48.6099 8.08177C48.4712 8.24063 48.4034 8.44925 48.4222 8.6593L48.7186 11.964C48.7709 12.5463 48.1827 12.9736 47.645 12.744L44.5937 11.4409C44.3997 11.3581 44.1804 11.3581 43.9864 11.4409L40.9351 12.744C40.3974 12.9736 39.8093 12.5463 39.8615 11.964L40.1579 8.6593C40.1767 8.44925 40.1089 8.24063 39.9702 8.08177L37.788 5.58246C37.4035 5.14204 37.6281 4.45063 38.1981 4.32035L41.4326 3.58104C41.6382 3.53405 41.8157 3.40512 41.9239 3.22411L43.6265 0.376366Z" fill="#F7C80D"/>
<path d="M62.4249 0.376366C62.7249 -0.125455 63.4519 -0.125456 63.7519 0.376365L65.4546 3.22411C65.5628 3.40512 65.7403 3.53405 65.9458 3.58104L69.1804 4.32035C69.7503 4.45063 69.975 5.14204 69.5904 5.58246L67.4082 8.08177C67.2695 8.24063 67.2017 8.44925 67.2206 8.6593L67.517 11.964C67.5692 12.5463 66.981 12.9736 66.4434 12.744L63.392 11.4409C63.1981 11.3581 62.9787 11.3581 62.7848 11.4409L59.7334 12.744C59.1958 12.9736 58.6076 12.5463 58.6598 11.964L58.9562 8.6593C58.9751 8.44925 58.9073 8.24063 58.7686 8.08177L56.5864 5.58246C56.2018 5.14204 56.4265 4.45063 56.9964 4.32035L60.231 3.58104C60.4365 3.53405 60.614 3.40512 60.7222 3.22411L62.4249 0.376366Z" fill="#F7C80D"/>
<path d="M81.2232 0.376366C81.5232 -0.125455 82.2502 -0.125456 82.5503 0.376365L84.2529 3.22411C84.3611 3.40512 84.5386 3.53405 84.7442 3.58104L87.9787 4.32035C88.5487 4.45063 88.7733 5.14204 88.3888 5.58246L86.2066 8.08177C86.0679 8.24063 86.0001 8.44925 86.0189 8.6593L86.3153 11.964C86.3675 12.5463 85.7794 12.9736 85.2417 12.744L82.1904 11.4409C81.9964 11.3581 81.7771 11.3581 81.5831 11.4409L78.5318 12.744C77.9941 12.9736 77.4059 12.5463 77.4582 11.964L77.7546 8.6593C77.7734 8.44925 77.7056 8.24063 77.5669 8.08177L75.3847 5.58246C75.0002 5.14204 75.2248 4.45063 75.7948 4.32035L79.0293 3.58104C79.2349 3.53405 79.4123 3.40512 79.5206 3.22411L81.2232 0.376366Z" fill="#F7C80D"/>
</svg>
