<svg width="20" height="20" viewBox="0 0 20 20" fill="none" xmlns="http://www.w3.org/2000/svg">
<path d="M11.4401 2.86123L12.9068 5.79456C13.1068 6.2029 13.6401 6.59456 14.0901 6.66956L16.7485 7.11123C18.4485 7.39456 18.8485 8.6279 17.6235 9.84456L15.5568 11.9112C15.2068 12.2612 15.0151 12.9362 15.1235 13.4196L15.7151 15.9779C16.1818 18.0029 15.1068 18.7862 13.3151 17.7279L10.8235 16.2529C10.3735 15.9862 9.63179 15.9862 9.17346 16.2529L6.68179 17.7279C4.89846 18.7862 3.81513 17.9946 4.28179 15.9779L4.87346 13.4196C4.98179 12.9362 4.79013 12.2612 4.44013 11.9112L2.37346 9.84456C1.15679 8.6279 1.54846 7.39456 3.24846 7.11123L5.90679 6.66956C6.34846 6.59456 6.88179 6.2029 7.08179 5.79456L8.54846 2.86123C9.34846 1.26956 10.6485 1.26956 11.4401 2.86123Z" stroke="#283030" stroke-width="1.2" stroke-linecap="round" stroke-linejoin="round"/>
</svg>
