<svg width="17" height="16" viewBox="0 0 17 16" fill="none" xmlns="http://www.w3.org/2000/svg">
<path d="M6.55859 11.9883V15.0251C6.55859 15.2372 6.69478 15.4251 6.89645 15.4919C6.94687 15.5083 6.99859 15.5161 7.04967 15.5161C7.20288 15.5161 7.35086 15.4441 7.44514 15.3158L9.22151 12.8984L6.55859 11.9883Z" fill="white"/>
<path d="M16.3372 0.548101C16.1866 0.441375 15.9888 0.42697 15.8251 0.512744L1.093 8.2062C0.918833 8.29721 0.816035 8.48316 0.83044 8.67894C0.8455 8.87536 0.975797 9.04298 1.1611 9.10649L5.25663 10.5064L13.9787 3.04864L7.22943 11.1801L14.0933 13.5261C14.1444 13.5432 14.1981 13.5523 14.2518 13.5523C14.3408 13.5523 14.4292 13.5281 14.5071 13.481C14.6315 13.405 14.716 13.2773 14.7376 13.1339L16.5382 1.02084C16.565 0.837506 16.4878 0.655482 16.3372 0.548101Z" fill="white"/>
</svg>
