<svg width="20" height="20" viewBox="0 0 20 20" fill="none" xmlns="http://www.w3.org/2000/svg">
<path d="M7.79177 16.1424L8.2788 17.2378C8.42359 17.5639 8.65987 17.8409 8.95899 18.0353C9.25812 18.2298 9.60723 18.3332 9.96399 18.3332C10.3207 18.3332 10.6699 18.2298 10.969 18.0353C11.2681 17.8409 11.5044 17.5639 11.6492 17.2378L12.1362 16.1424C12.3096 15.7538 12.6012 15.4297 12.9695 15.2165C13.3402 15.0027 13.769 14.9116 14.1945 14.9563L15.3862 15.0832C15.7409 15.1207 16.0989 15.0545 16.4168 14.8926C16.7346 14.7307 16.9987 14.4801 17.177 14.1711C17.3554 13.8623 17.4405 13.5084 17.4217 13.1522C17.403 12.7961 17.2813 12.453 17.0714 12.1647L16.3658 11.1952C16.1146 10.8474 15.9804 10.4288 15.9825 9.99984C15.9824 9.57199 16.1179 9.15513 16.3695 8.8091L17.0751 7.83965C17.285 7.5513 17.4067 7.20823 17.4254 6.85206C17.4442 6.4959 17.3591 6.14195 17.1807 5.83317C17.0024 5.5242 16.7383 5.27358 16.4205 5.11169C16.1026 4.94981 15.7446 4.88361 15.3899 4.92113L14.1982 5.04799C13.7727 5.09268 13.3439 5.0016 12.9732 4.7878C12.6042 4.57338 12.3125 4.24764 12.1399 3.85724L11.6492 2.76187C11.5044 2.43581 11.2681 2.15877 10.969 1.96434C10.6699 1.76991 10.3207 1.66645 9.96399 1.6665C9.60723 1.66645 9.25812 1.76991 8.95899 1.96434C8.65987 2.15877 8.42359 2.43581 8.2788 2.76187L7.79177 3.85724C7.61921 4.24764 7.32749 4.57338 6.95843 4.7878C6.58778 5.0016 6.15899 5.09268 5.73343 5.04799L4.53806 4.92113C4.18334 4.88361 3.82535 4.94981 3.50749 5.11169C3.18964 5.27358 2.92558 5.5242 2.74732 5.83317C2.56884 6.14195 2.48381 6.4959 2.50255 6.85206C2.52128 7.20823 2.64298 7.5513 2.85288 7.83965L3.55843 8.8091C3.81005 9.15513 3.94555 9.57199 3.94547 9.99984C3.94555 10.4277 3.81005 10.8445 3.55843 11.1906L2.85288 12.16C2.64298 12.4484 2.52128 12.7914 2.50255 13.1476C2.48381 13.5038 2.56884 13.8577 2.74732 14.1665C2.92575 14.4753 3.18985 14.7258 3.50765 14.8877C3.82546 15.0495 4.18336 15.1158 4.53806 15.0785L5.72973 14.9517C6.15529 14.907 6.58408 14.9981 6.95473 15.2119C7.32517 15.4257 7.61824 15.7515 7.79177 16.1424Z" stroke="#283030" stroke-width="1.2" stroke-linecap="round" stroke-linejoin="round"/>
<path d="M9.9625 12.4998C11.3432 12.4998 12.4625 11.3805 12.4625 9.99984C12.4625 8.61913 11.3432 7.49984 9.9625 7.49984C8.58179 7.49984 7.4625 8.61913 7.4625 9.99984C7.4625 11.3805 8.58179 12.4998 9.9625 12.4998Z" stroke="#283030" stroke-width="1.2" stroke-linecap="round" stroke-linejoin="round"/>
</svg>
