<svg width="40" height="40" viewBox="0 0 40 40" fill="none" xmlns="http://www.w3.org/2000/svg">
<rect width="40" height="40" rx="10" fill="#2CBFCA" fill-opacity="0.1"/>
<path d="M19.625 14.75H19.9508C22.2362 14.75 23.3789 14.75 23.8127 15.1605C24.1877 15.5153 24.3539 16.038 24.2526 16.5442C24.1355 17.1298 23.2026 17.7896 21.3367 19.1094L18.2883 21.2656C16.4224 22.5854 15.4895 23.2452 15.3724 23.8308C15.2711 24.337 15.4373 24.8597 15.8123 25.2145C16.2461 25.625 17.3888 25.625 19.6742 25.625H20.375M17 14.75C17 15.9926 15.9926 17 14.75 17C13.5074 17 12.5 15.9926 12.5 14.75C12.5 13.5074 13.5074 12.5 14.75 12.5C15.9926 12.5 17 13.5074 17 14.75ZM27.5 25.25C27.5 26.4926 26.4926 27.5 25.25 27.5C24.0074 27.5 23 26.4926 23 25.25C23 24.0074 24.0074 23 25.25 23C26.4926 23 27.5 24.0074 27.5 25.25Z" stroke="#2CBFCA" stroke-width="2" stroke-linecap="round" stroke-linejoin="round"/>
</svg>
