<svg width="44" height="44" viewBox="0 0 44 44" fill="none" xmlns="http://www.w3.org/2000/svg">
<g id="Group 1000010951">
<g id="Group 1000010947">
<path id="Icon" d="M18 24C18 24 19.5 26 22 26C24.5 26 26 24 26 24M25 19H25.01M19 19H19.01M32 22C32 27.5228 27.5228 32 22 32C16.4772 32 12 27.5228 12 22C12 16.4772 16.4772 12 22 12C27.5228 12 32 16.4772 32 22ZM25.5 19C25.5 19.2761 25.2761 19.5 25 19.5C24.7239 19.5 24.5 19.2761 24.5 19C24.5 18.7239 24.7239 18.5 25 18.5C25.2761 18.5 25.5 18.7239 25.5 19ZM19.5 19C19.5 19.2761 19.2761 19.5 19 19.5C18.7239 19.5 18.5 19.2761 18.5 19C18.5 18.7239 18.7239 18.5 19 18.5C19.2761 18.5 19.5 18.7239 19.5 19Z" stroke="#283030" stroke-opacity="0.6" stroke-width="1.5" stroke-linecap="round" stroke-linejoin="round"/>
</g>
</g>
</svg>
