<svg width="40" height="40" viewBox="0 0 40 40" fill="none" xmlns="http://www.w3.org/2000/svg">
<rect width="40" height="40" rx="10" fill="#2CBFCA" fill-opacity="0.1"/>
<path d="M26.9078 22.9062C26.4307 24.0346 25.6844 25.0289 24.7342 25.8022C23.784 26.5755 22.6589 27.1043 21.4571 27.3423C20.2554 27.5803 19.0136 27.5203 17.8404 27.1675C16.6672 26.8148 15.5983 26.18 14.7271 25.3187C13.8559 24.4574 13.2089 23.3958 12.8428 22.2267C12.4766 21.0576 12.4025 19.8166 12.6268 18.6122C12.851 17.4078 13.3669 16.2767 14.1293 15.3177C14.8917 14.3588 15.8775 13.6012 17.0003 13.1112M26.9294 17.1186C27.2296 17.8434 27.4138 18.6097 27.4763 19.3893C27.4918 19.5819 27.4995 19.6782 27.4612 19.765C27.4293 19.8374 27.366 19.906 27.2963 19.9436C27.2129 19.9887 27.1087 19.9887 26.9003 19.9887H20.6003C20.3903 19.9887 20.2853 19.9887 20.2051 19.9478C20.1345 19.9119 20.0771 19.8545 20.0412 19.7839C20.0003 19.7037 20.0003 19.5987 20.0003 19.3887V13.0887C20.0003 12.8803 20.0003 12.7761 20.0454 12.6927C20.083 12.623 20.1516 12.5597 20.224 12.5278C20.3108 12.4895 20.4071 12.4972 20.5997 12.5127C21.3793 12.5752 22.1456 12.7594 22.8704 13.0596C23.7804 13.4365 24.6072 13.989 25.3036 14.6854C26 15.3818 26.5525 16.2086 26.9294 17.1186Z" stroke="#2CBFCA" stroke-width="2" stroke-linecap="round" stroke-linejoin="round"/>
</svg>
