<svg width="40" height="40" viewBox="0 0 40 40" fill="none" xmlns="http://www.w3.org/2000/svg">
<rect width="40" height="40" rx="10" fill="#2CBFCA" fill-opacity="0.1"/>
<path d="M24.8284 14.2714C24.9969 14.6789 25.3203 15.0028 25.7275 15.1719L27.1554 15.7634C27.5629 15.9322 27.8866 16.2559 28.0554 16.6634C28.2242 17.0709 28.2242 17.5288 28.0554 17.9363L27.4644 19.3632C27.2955 19.7709 27.2953 20.2292 27.4649 20.6367L28.0549 22.0632C28.1386 22.2651 28.1817 22.4814 28.1817 22.6999C28.1817 22.9184 28.1387 23.1347 28.0551 23.3366C27.9715 23.5385 27.8489 23.7219 27.6944 23.8763C27.5399 24.0308 27.3565 24.1533 27.1546 24.2369L25.7277 24.8279C25.3203 24.9964 24.9964 25.3198 24.8273 25.727L24.2359 27.155C24.0671 27.5625 23.7433 27.8862 23.3358 28.055C22.9283 28.2238 22.4705 28.2238 22.063 28.055L20.6361 27.464C20.2286 27.2956 19.7709 27.2959 19.3637 27.4649L17.9358 28.0556C17.5286 28.224 17.0711 28.2238 16.6639 28.0552C16.2568 27.8865 15.9332 27.5631 15.7643 27.156L15.1727 25.7277C15.0042 25.3202 14.6808 24.9963 14.2736 24.8272L12.8457 24.2358C12.4384 24.067 12.1148 23.7435 11.9459 23.3362C11.777 22.9289 11.7768 22.4713 11.9453 22.0638L12.5363 20.6369C12.7047 20.2294 12.7043 19.7717 12.5353 19.3644L11.9452 17.9355C11.8615 17.7337 11.8184 17.5173 11.8184 17.2988C11.8183 17.0803 11.8613 16.864 11.945 16.6621C12.0286 16.4602 12.1511 16.2768 12.3056 16.1224C12.4602 15.9679 12.6436 15.8454 12.8455 15.7618L14.2723 15.1708C14.6794 15.0025 15.0031 14.6795 15.1723 14.2727L15.7638 12.8448C15.9326 12.4373 16.2563 12.1135 16.6638 11.9447C17.0713 11.7759 17.5292 11.7759 17.9367 11.9447L19.3635 12.5358C19.771 12.7041 20.2287 12.7038 20.6359 12.5348L22.0644 11.9456C22.4719 11.7769 22.9296 11.777 23.337 11.9457C23.7444 12.1145 24.0682 12.4382 24.237 12.8456L24.8286 14.2739L24.8284 14.2714Z" fill="#2CBFCA"/>
<path d="M17.5459 20.0005L19.1823 21.6369L22.8641 17.9551" stroke="white" stroke-width="1.2" stroke-linecap="round" stroke-linejoin="round"/>
</svg>
