<svg width="170" height="184" viewBox="0 0 170 184" fill="none" xmlns="http://www.w3.org/2000/svg">
<rect width="169.071" height="183.495" rx="16.0257" fill="#2CBFCA"/>
<circle cx="84.135" cy="69.7122" r="35.2566" fill="#48CDD7"/>
<circle cx="84.1348" cy="69.7124" r="45.6733" stroke="#48CDD7" stroke-width="4.80772"/>
<path d="M67.1054 75.6271V72.7801L75.4921 59.5294H77.8662V63.5828H76.4186L70.7728 72.5291V72.6836H82.4793V75.6271H67.1054ZM76.5344 79.2944V74.7585L76.573 73.4846V59.5294H79.9508V79.2944H76.5344ZM92.801 79.5647C91.8552 79.5582 90.9319 79.3942 90.0312 79.0725C89.1304 78.7443 88.3197 78.2135 87.5991 77.4801C86.8785 76.7402 86.3059 75.759 85.8813 74.5365C85.4566 73.3077 85.2475 71.786 85.254 69.9717C85.254 68.2795 85.4341 66.7708 85.7944 65.4454C86.1547 64.12 86.6726 63.0005 87.3482 62.0869C88.0238 61.1668 88.8377 60.4655 89.7899 59.983C90.7485 59.5004 91.8198 59.2592 93.0036 59.2592C94.2454 59.2592 95.3456 59.5036 96.3043 59.9926C97.2693 60.4816 98.0478 61.1507 98.6398 62C99.2317 62.8429 99.5984 63.7951 99.74 64.8567H96.2174C96.0372 64.0975 95.6673 63.4927 95.1075 63.0423C94.5542 62.5855 93.8529 62.3571 93.0036 62.3571C91.6332 62.3571 90.578 62.9522 89.8381 64.1425C89.1047 65.3328 88.7347 66.967 88.7283 69.0452H88.8634C89.1787 68.479 89.5872 67.9932 90.0891 67.5879C90.5909 67.1825 91.1571 66.8705 91.7876 66.6517C92.4246 66.4266 93.0969 66.314 93.8047 66.314C94.9628 66.314 96.0019 66.5906 96.9219 67.1439C97.8484 67.6973 98.5819 68.4597 99.1223 69.4312C99.6628 70.3963 99.9298 71.5029 99.9233 72.7511C99.9298 74.0508 99.6338 75.2185 99.0355 76.2544C98.4371 77.2838 97.6039 78.0945 96.5359 78.6864C95.4678 79.2783 94.2229 79.5711 92.801 79.5647ZM92.7817 76.6694C93.483 76.6694 94.1103 76.4989 94.6636 76.1579C95.2169 75.8169 95.6544 75.3569 95.9761 74.7778C96.2978 74.1988 96.4554 73.5489 96.449 72.8283C96.4554 72.1206 96.301 71.4804 95.9858 70.9078C95.6769 70.3352 95.2491 69.8816 94.7022 69.547C94.1553 69.2125 93.5312 69.0452 92.8299 69.0452C92.3088 69.0452 91.823 69.1449 91.3726 69.3443C90.9223 69.5438 90.5298 69.8205 90.1952 70.1743C89.8607 70.5218 89.5969 70.9271 89.4039 71.3903C89.2173 71.8472 89.1208 72.3361 89.1143 72.8573C89.1208 73.5457 89.2816 74.1795 89.5969 74.7585C89.9121 75.3376 90.3464 75.8008 90.8997 76.1482C91.4531 76.4957 92.0804 76.6694 92.7817 76.6694Z" fill="white"/>
<path d="M55.7125 137.936V137.028H61.1246V137.936H58.9427V144.021H57.891V137.936H55.7125ZM63.6872 144.127C63.1955 144.127 62.7664 144.014 62.3999 143.789C62.0334 143.563 61.7489 143.248 61.5463 142.843C61.3437 142.438 61.2424 141.964 61.2424 141.423C61.2424 140.878 61.3437 140.403 61.5463 139.995C61.7489 139.588 62.0334 139.271 62.3999 139.046C62.7664 138.821 63.1955 138.708 63.6872 138.708C64.1789 138.708 64.608 138.821 64.9745 139.046C65.341 139.271 65.6255 139.588 65.8281 139.995C66.0307 140.403 66.132 140.878 66.132 141.423C66.132 141.964 66.0307 142.438 65.8281 142.843C65.6255 143.248 65.341 143.563 64.9745 143.789C64.608 144.014 64.1789 144.127 63.6872 144.127ZM63.6906 143.27C64.0093 143.27 64.2734 143.186 64.4828 143.017C64.6922 142.849 64.847 142.624 64.9472 142.344C65.0496 142.064 65.1008 141.756 65.1008 141.419C65.1008 141.084 65.0496 140.777 64.9472 140.497C64.847 140.215 64.6922 139.988 64.4828 139.818C64.2734 139.647 64.0093 139.562 63.6906 139.562C63.3696 139.562 63.1033 139.647 62.8916 139.818C62.6822 139.988 62.5262 140.215 62.4238 140.497C62.3236 140.777 62.2736 141.084 62.2736 141.419C62.2736 141.756 62.3236 142.064 62.4238 142.344C62.5262 142.624 62.6822 142.849 62.8916 143.017C63.1033 143.186 63.3696 143.27 63.6906 143.27ZM69.7199 138.776V139.596H66.8551V138.776H69.7199ZM67.6233 137.52H68.6443V142.481C68.6443 142.679 68.6739 142.828 68.7331 142.928C68.7923 143.026 68.8685 143.093 68.9619 143.13C69.0575 143.164 69.161 143.181 69.2726 143.181C69.3545 143.181 69.4262 143.175 69.4877 143.164C69.5492 143.153 69.597 143.143 69.6311 143.137L69.8155 143.98C69.7563 144.003 69.6721 144.026 69.5628 144.048C69.4536 144.073 69.317 144.087 69.1531 144.089C68.8845 144.094 68.6341 144.046 68.4019 143.946C68.1697 143.846 67.9819 143.691 67.8385 143.481C67.6951 143.272 67.6233 143.009 67.6233 142.693V137.52ZM72.3756 144.137C72.0432 144.137 71.7427 144.076 71.4741 143.953C71.2055 143.828 70.9927 143.647 70.8356 143.41C70.6808 143.173 70.6034 142.883 70.6034 142.539C70.6034 142.243 70.6603 142 70.7741 141.808C70.888 141.617 71.0416 141.466 71.2351 141.354C71.4286 141.243 71.6449 141.158 71.8839 141.102C72.1229 141.045 72.3665 141.001 72.6146 140.972C72.9287 140.935 73.1837 140.906 73.3795 140.883C73.5752 140.858 73.7175 140.818 73.8063 140.763C73.8951 140.709 73.9395 140.62 73.9395 140.497V140.473C73.9395 140.175 73.8552 139.944 73.6868 139.78C73.5206 139.616 73.2725 139.534 72.9424 139.534C72.5987 139.534 72.3278 139.611 72.1297 139.763C71.934 139.913 71.7985 140.081 71.7234 140.265L70.7639 140.046C70.8777 139.728 71.0439 139.471 71.2624 139.275C71.4832 139.077 71.7371 138.933 72.0239 138.845C72.3107 138.753 72.6123 138.708 72.9287 138.708C73.1382 138.708 73.3601 138.733 73.5946 138.783C73.8313 138.831 74.0521 138.92 74.257 139.049C74.4642 139.179 74.6337 139.365 74.7658 139.606C74.8978 139.845 74.9638 140.156 74.9638 140.538V144.021H73.9668V143.304H73.9258C73.8598 143.436 73.7608 143.566 73.6287 143.693C73.4967 143.821 73.3271 143.927 73.12 144.011C72.9128 144.095 72.6647 144.137 72.3756 144.137ZM72.5975 143.318C72.8798 143.318 73.1211 143.262 73.3214 143.15C73.524 143.039 73.6777 142.893 73.7824 142.713C73.8894 142.531 73.9429 142.336 73.9429 142.129V141.453C73.9064 141.49 73.8359 141.524 73.7312 141.556C73.6287 141.585 73.5115 141.611 73.3795 141.634C73.2474 141.655 73.1188 141.674 72.9936 141.692C72.8684 141.708 72.7637 141.722 72.6795 141.733C72.4814 141.758 72.3005 141.8 72.1366 141.86C71.9749 141.919 71.8452 142.004 71.7473 142.116C71.6517 142.225 71.6039 142.371 71.6039 142.553C71.6039 142.805 71.6972 142.997 71.8839 143.126C72.0705 143.254 72.3084 143.318 72.5975 143.318ZM77.3446 137.028V144.021H76.3237V137.028H77.3446ZM57.7202 156.021L55.6624 149.028H57.0692L58.4396 154.163H58.5079L59.8828 149.028H61.2896L62.6554 154.141H62.7237L64.085 149.028H65.4918L63.4385 156.021H62.0499L60.6295 150.972H60.5247L59.1043 156.021H57.7202ZM69.5164 156.162C68.8608 156.162 68.2887 156.012 67.8001 155.711C67.3114 155.411 66.932 154.991 66.6619 154.45C66.3917 153.91 66.2567 153.279 66.2567 152.556C66.2567 151.831 66.3917 151.197 66.6619 150.653C66.932 150.11 67.3114 149.688 67.8001 149.388C68.2887 149.087 68.8608 148.937 69.5164 148.937C70.172 148.937 70.7442 149.087 71.2328 149.388C71.7215 149.688 72.1009 150.11 72.371 150.653C72.6412 151.197 72.7762 151.831 72.7762 152.556C72.7762 153.279 72.6412 153.91 72.371 154.45C72.1009 154.991 71.7215 155.411 71.2328 155.711C70.7442 156.012 70.172 156.162 69.5164 156.162ZM69.521 155.019C69.9459 155.019 70.298 154.907 70.5772 154.682C70.8565 154.458 71.0629 154.159 71.1964 153.786C71.333 153.412 71.4013 153.001 71.4013 152.552C71.4013 152.106 71.333 151.696 71.1964 151.323C71.0629 150.946 70.8565 150.644 70.5772 150.417C70.298 150.189 69.9459 150.075 69.521 150.075C69.093 150.075 68.7379 150.189 68.4557 150.417C68.1764 150.644 67.9685 150.946 67.8319 151.323C67.6984 151.696 67.6316 152.106 67.6316 152.552C67.6316 153.001 67.6984 153.412 67.8319 153.786C67.9685 154.159 68.1764 154.458 68.4557 154.682C68.7379 154.907 69.093 155.019 69.521 155.019ZM74.2957 156.021V149.028H75.6115V150.139H75.6843C75.8118 149.762 76.0364 149.467 76.3581 149.251C76.6829 149.033 77.0501 148.923 77.4599 148.923C77.5449 148.923 77.645 148.926 77.7604 148.932C77.8787 148.938 77.9713 148.946 78.0381 148.955V150.257C77.9834 150.242 77.8863 150.225 77.7467 150.207C77.6071 150.186 77.4675 150.175 77.3278 150.175C77.0061 150.175 76.7193 150.244 76.4674 150.38C76.2185 150.514 76.0212 150.7 75.8755 150.94C75.7298 151.177 75.657 151.447 75.657 151.751V156.021H74.2957ZM80.4681 153.649L80.459 151.987H80.6958L83.482 149.028H85.1119L81.9341 152.397H81.7201L80.4681 153.649ZM79.2161 156.021V146.697H80.5774V156.021H79.2161ZM83.6323 156.021L81.1283 152.697L82.0661 151.746L85.3031 156.021H83.6323ZM86.3526 156.021V149.028H87.7138V156.021H86.3526ZM87.04 147.949C86.8033 147.949 86.5999 147.87 86.43 147.712C86.263 147.551 86.1796 147.36 86.1796 147.139C86.1796 146.914 86.263 146.723 86.43 146.565C86.5999 146.404 86.8033 146.324 87.04 146.324C87.2768 146.324 87.4786 146.404 87.6455 146.565C87.8155 146.723 87.9005 146.914 87.9005 147.139C87.9005 147.36 87.8155 147.551 87.6455 147.712C87.4786 147.87 87.2768 147.949 87.04 147.949ZM90.9065 151.869V156.021H89.5452V149.028H90.8518V150.166H90.9383C91.0992 149.796 91.3511 149.498 91.6941 149.274C92.0401 149.049 92.4756 148.937 93.0007 148.937C93.4773 148.937 93.8946 149.037 94.2527 149.237C94.6109 149.435 94.8886 149.729 95.0859 150.121C95.2832 150.512 95.3818 150.996 95.3818 151.573V156.021H94.0205V151.737C94.0205 151.23 93.8885 150.834 93.6245 150.549C93.3604 150.26 92.9977 150.116 92.5363 150.116C92.2207 150.116 91.9399 150.184 91.6941 150.321C91.4513 150.458 91.2585 150.658 91.1159 150.922C90.9763 151.183 90.9065 151.499 90.9065 151.869ZM100.139 158.789C99.584 158.789 99.106 158.716 98.7053 158.571C98.3077 158.425 97.983 158.232 97.731 157.992C97.4791 157.753 97.2909 157.49 97.1665 157.205L98.3366 156.722C98.4185 156.856 98.5278 156.997 98.6644 157.146C98.804 157.297 98.9922 157.426 99.2289 157.533C99.4687 157.639 99.7768 157.692 100.153 157.692C100.669 157.692 101.096 157.566 101.432 157.314C101.769 157.065 101.938 156.667 101.938 156.121V154.746H101.851C101.769 154.895 101.651 155.06 101.496 155.242C101.344 155.425 101.135 155.582 100.868 155.716C100.601 155.85 100.253 155.916 99.8253 155.916C99.2729 155.916 98.7751 155.787 98.332 155.529C97.8919 155.268 97.5429 154.884 97.2849 154.377C97.0299 153.868 96.9024 153.241 96.9024 152.497C96.9024 151.754 97.0284 151.116 97.2803 150.585C97.5353 150.054 97.8843 149.647 98.3275 149.365C98.7706 149.08 99.2729 148.937 99.8344 148.937C100.268 148.937 100.619 149.01 100.886 149.155C101.153 149.298 101.361 149.465 101.51 149.656C101.662 149.847 101.778 150.016 101.86 150.162H101.961V149.028H103.295V156.176C103.295 156.777 103.155 157.27 102.876 157.655C102.596 158.041 102.219 158.326 101.742 158.511C101.269 158.697 100.734 158.789 100.139 158.789ZM100.126 154.787C100.517 154.787 100.848 154.696 101.118 154.514C101.391 154.329 101.598 154.065 101.737 153.722C101.88 153.376 101.951 152.962 101.951 152.479C101.951 152.008 101.882 151.594 101.742 151.236C101.602 150.878 101.398 150.599 101.127 150.398C100.857 150.195 100.523 150.093 100.126 150.093C99.7161 150.093 99.3746 150.2 99.1014 150.412C98.8283 150.621 98.6219 150.907 98.4823 151.268C98.3457 151.629 98.2774 152.033 98.2774 152.479C98.2774 152.937 98.3472 153.339 98.4868 153.685C98.6264 154.031 98.8328 154.302 99.106 154.496C99.3822 154.69 99.7221 154.787 100.126 154.787ZM109.874 151.869V156.021H108.513V146.697H109.856V150.166H109.943C110.107 149.79 110.357 149.491 110.694 149.269C111.031 149.048 111.471 148.937 112.014 148.937C112.494 148.937 112.913 149.036 113.271 149.233C113.632 149.43 113.911 149.725 114.108 150.116C114.309 150.505 114.409 150.99 114.409 151.573V156.021H113.048V151.737C113.048 151.224 112.916 150.826 112.652 150.544C112.388 150.259 112.02 150.116 111.55 150.116C111.228 150.116 110.94 150.184 110.685 150.321C110.433 150.458 110.234 150.658 110.088 150.922C109.946 151.183 109.874 151.499 109.874 151.869ZM119.171 156.162C118.516 156.162 117.943 156.012 117.455 155.711C116.966 155.411 116.587 154.991 116.317 154.45C116.046 153.91 115.911 153.279 115.911 152.556C115.911 151.831 116.046 151.197 116.317 150.653C116.587 150.11 116.966 149.688 117.455 149.388C117.943 149.087 118.516 148.937 119.171 148.937C119.827 148.937 120.399 149.087 120.888 149.388C121.376 149.688 121.756 150.11 122.026 150.653C122.296 151.197 122.431 151.831 122.431 152.556C122.431 153.279 122.296 153.91 122.026 154.45C121.756 154.991 121.376 155.411 120.888 155.711C120.399 156.012 119.827 156.162 119.171 156.162ZM119.176 155.019C119.601 155.019 119.953 154.907 120.232 154.682C120.511 154.458 120.718 154.159 120.851 153.786C120.988 153.412 121.056 153.001 121.056 152.552C121.056 152.106 120.988 151.696 120.851 151.323C120.718 150.946 120.511 150.644 120.232 150.417C119.953 150.189 119.601 150.075 119.176 150.075C118.748 150.075 118.393 150.189 118.11 150.417C117.831 150.644 117.623 150.946 117.487 151.323C117.353 151.696 117.286 152.106 117.286 152.552C117.286 153.001 117.353 153.412 117.487 153.786C117.623 154.159 117.831 154.458 118.11 154.682C118.393 154.907 118.748 155.019 119.176 155.019ZM128.38 153.121V149.028H129.746V156.021H128.408V154.81H128.335C128.174 155.183 127.916 155.494 127.561 155.743C127.209 155.989 126.77 156.112 126.245 156.112C125.796 156.112 125.398 156.013 125.052 155.816C124.709 155.616 124.439 155.32 124.242 154.928C124.048 154.537 123.95 154.053 123.95 153.476V149.028H125.312V153.312C125.312 153.789 125.444 154.168 125.708 154.45C125.972 154.733 126.315 154.874 126.737 154.874C126.992 154.874 127.245 154.81 127.497 154.682C127.752 154.555 127.963 154.362 128.13 154.104C128.3 153.846 128.383 153.518 128.38 153.121ZM131.575 156.021V149.028H132.891V150.139H132.964C133.091 149.762 133.316 149.467 133.638 149.251C133.962 149.033 134.33 148.923 134.739 148.923C134.824 148.923 134.924 148.926 135.04 148.932C135.158 148.938 135.251 148.946 135.318 148.955V150.257C135.263 150.242 135.166 150.225 135.026 150.207C134.887 150.186 134.747 150.175 134.607 150.175C134.286 150.175 133.999 150.244 133.747 150.38C133.498 150.514 133.301 150.7 133.155 150.94C133.009 151.177 132.936 151.447 132.936 151.751V156.021H131.575Z" fill="white"/>
<circle cx="38.4617" cy="147.438" r="12.0193" fill="#48CDD7"/>
<path d="M43.0509 146.418H33.8726M40.5014 142.339V144.379M36.4221 142.339V144.379M36.932 149.478L37.9518 150.497L40.2464 148.203M36.3201 152.537H40.6034C41.4601 152.537 41.8885 152.537 42.2157 152.37C42.5035 152.224 42.7375 151.99 42.8842 151.702C43.0509 151.375 43.0509 150.946 43.0509 150.089V145.806C43.0509 144.95 43.0509 144.521 42.8842 144.194C42.7375 143.906 42.5035 143.672 42.2157 143.525C41.8885 143.359 41.4601 143.359 40.6034 143.359H36.3201C35.4634 143.359 35.035 143.359 34.7078 143.525C34.42 143.672 34.1859 143.906 34.0393 144.194C33.8726 144.521 33.8726 144.95 33.8726 145.806V150.089C33.8726 150.946 33.8726 151.375 34.0393 151.702C34.1859 151.99 34.42 152.224 34.7078 152.37C35.035 152.537 35.4634 152.537 36.3201 152.537Z" stroke="white" stroke-width="1.20193" stroke-linecap="round" stroke-linejoin="round"/>
</svg>
